<svg width="123" height="51" viewBox="0 0 123 51" fill="none" xmlns="http://www.w3.org/2000/svg">
<path d="M120.414 2.75009C109.884 2.23651 99.3542 1.7395 88.8242 1.22592C86.5986 1.12652 86.5986 4.5559 88.8242 4.67187C97.71 5.10261 106.579 5.53336 115.465 5.9641C108.323 10.8017 101.43 16.0037 94.521 21.1395C89.555 24.834 84.1737 26.3085 79.108 21.8354C75.3378 18.5054 73.8596 13.2039 71.6008 8.87991C69.4914 4.82097 65.9538 0.596369 61.0873 0.0662229C55.158 -0.579893 49.8763 3.51217 46.0231 7.53797C37.7851 16.1363 34.6294 28.1971 28.318 38.0711C25.4114 42.627 21.309 46.9676 15.5291 47.0504C9.89872 47.1333 5.33128 42.2626 3.43786 37.3918C2.64064 35.3375 -0.697753 36.2321 0.116083 38.303C4.00256 48.3261 15.2966 54.3897 24.7637 47.2492C29.0156 44.0352 31.8557 39.2308 34.3138 34.6086C37.0709 29.4065 39.3961 24.0056 42.2362 18.8533C45.3255 13.237 49.3449 7.91901 55.0417 4.7547C61.1372 1.37502 65.7877 5.35112 68.6278 10.6029C70.9198 14.8275 72.3814 19.4331 75.5869 23.1276C79.2575 27.3688 84.7716 29.1414 90.1695 27.5344C92.8768 26.7226 95.0858 24.9665 97.3113 23.3264C99.703 21.5537 102.111 19.781 104.52 18.0084C108.207 15.3079 111.894 12.6075 115.664 9.9899C111.678 17.793 107.692 25.5795 103.706 33.3826C102.693 35.3541 105.682 37.0936 106.679 35.1221C111.761 25.1819 116.843 15.2582 121.926 5.31799C122.54 4.12516 121.776 2.79979 120.431 2.73352L120.414 2.75009Z" fill="#ECD9FA"/>
</svg>
