<svg width="123" height="51" viewBox="0 0 123 51" fill="none" xmlns="http://www.w3.org/2000/svg">
<path d="M120.414 2.75009C109.884 2.23651 99.3544 1.7395 88.8243 1.22592C86.5987 1.12652 86.5987 4.5559 88.8243 4.67187C97.7101 5.10261 106.579 5.53336 115.465 5.9641C108.323 10.8017 101.43 16.0037 94.5212 21.1395C89.5551 24.834 84.1738 26.3085 79.1081 21.8354C75.3379 18.5054 73.8597 13.2039 71.6009 8.87991C69.4916 4.82097 65.9539 0.596369 61.0875 0.0662229C55.1581 -0.579893 49.8765 3.51217 46.0232 7.53797C37.7852 16.1363 34.6295 28.1971 28.3181 38.0711C25.4116 42.627 21.3092 46.9676 15.5293 47.0504C9.89885 47.1333 5.3314 42.2626 3.43798 37.3918C2.64076 35.3375 -0.697631 36.2321 0.116205 38.303C4.00269 48.3261 15.2967 54.3897 24.7638 47.2492C29.0157 44.0352 31.8558 39.2308 34.3139 34.6086C37.071 29.4065 39.3962 24.0056 42.2364 18.8533C45.3256 13.237 49.345 7.91901 55.0418 4.7547C61.1373 1.37502 65.7878 5.35112 68.6279 10.6029C70.9199 14.8275 72.3815 19.4331 75.587 23.1276C79.2576 27.3688 84.7718 29.1414 90.1696 27.5344C92.8769 26.7226 95.0859 24.9665 97.3115 23.3264C99.7031 21.5537 102.111 19.781 104.52 18.0084C108.207 15.3079 111.894 12.6075 115.664 9.9899C111.678 17.793 107.692 25.5795 103.706 33.3826C102.693 35.3541 105.682 37.0936 106.679 35.1221C111.761 25.1819 116.844 15.2582 121.926 5.31799C122.54 4.12516 121.776 2.79979 120.431 2.73352L120.414 2.75009Z" fill="#402060"/>
</svg>
