<svg width="219" height="48" viewBox="0 0 219 48" fill="none" xmlns="http://www.w3.org/2000/svg">
<path d="M19.1 7.19593C21.4388 7.19593 23.2078 7.8156 24.4072 9.05493C25.6265 10.2743 26.2362 12.0333 26.2362 14.3321V21.0485C26.2362 23.3473 25.6265 25.1163 24.4072 26.3556C23.2078 27.575 21.4388 28.1847 19.1 28.1847H1.01974C0.360096 28.1847 0.0302734 27.8548 0.0302734 27.1952V21.1384L4.37794 17.0906V24.3767H17.9906C19.27 24.3767 20.2394 24.0469 20.8991 23.3872C21.5587 22.7276 21.8885 21.7681 21.8885 20.5088V14.8718C21.8885 13.6125 21.5587 12.653 20.8991 11.9934C20.2394 11.3337 19.27 11.0039 17.9906 11.0039H10.9445L14.9024 7.19593H19.1Z" fill="white"/>
<path d="M0.00619352 8.16369V19.1895L13.1929 7.20492H0.969902C0.102564 7.10904 -0.033961 7.80415 0.00619352 8.16369Z" fill="url(#paint0_linear_584_2106)"/>
<path d="M34.691 21.2236C34.691 22.1831 34.9409 22.9227 35.4406 23.4424C35.9603 23.9422 36.6999 24.192 37.6594 24.192H54.9901C55.6298 24.192 55.9496 24.5119 55.9496 25.1515V27.0105C55.9496 27.6702 55.6298 28 54.9901 28H36.52C34.5211 28 32.9919 27.4703 31.9325 26.4109C30.893 25.3314 30.3733 23.8023 30.3733 21.8233V13.188C30.3733 11.209 30.893 9.68983 31.9325 8.6304C32.9919 7.55098 34.5211 7.01127 36.52 7.01127H54.9901C55.6298 7.01127 55.9496 7.34109 55.9496 8.00073V9.85974C55.9496 10.4994 55.6298 10.8192 54.9901 10.8192H37.6594C36.6999 10.8192 35.9603 11.0791 35.4406 11.5988C34.9409 12.0985 34.691 12.8281 34.691 13.7876V15.6466H52.5914C53.2311 15.6466 53.5509 15.9765 53.5509 16.6361V18.3752C53.5509 19.0348 53.2311 19.3646 52.5914 19.3646H34.691V21.2236ZM70.2606 28C69.8408 28 69.471 27.93 69.1512 27.7901C68.8314 27.6302 68.5815 27.3803 68.4016 27.0405L57.6374 8.12067C57.5174 7.8808 57.4974 7.64093 57.5774 7.40106C57.6773 7.1412 57.8872 7.01127 58.2071 7.01127H60.9956C61.3754 7.01127 61.6552 7.07123 61.8351 7.19117C62.035 7.31111 62.2049 7.48101 62.3448 7.7009L71.43 24.222L80.5451 7.7009C80.685 7.48101 80.8449 7.31111 81.0248 7.19117C81.2247 7.07123 81.5145 7.01127 81.8943 7.01127H84.5629C84.8827 7.01127 85.0826 7.1412 85.1626 7.40106C85.2625 7.64093 85.2425 7.8808 85.1026 8.12067L74.3684 27.0405C74.1885 27.3803 73.9386 27.6302 73.6188 27.7901C73.299 27.93 72.9292 28 72.5094 28H70.2606ZM91.7956 27.0105C91.7956 27.6702 91.4658 28 90.8061 28H88.4374C87.7777 28 87.4479 27.6702 87.4479 27.0105V8.00073C87.4479 7.34109 87.7777 7.01127 88.4374 7.01127H90.8061C91.4658 7.01127 91.7956 7.34109 91.7956 8.00073V27.0105ZM101.798 10.8192C100.019 10.8192 99.1297 11.5588 99.1297 13.038V13.4278C99.1297 14.2074 99.3396 14.7771 99.7594 15.1369C100.199 15.4767 100.879 15.6466 101.798 15.6466H114.451C115.431 15.6466 116.32 15.7366 117.12 15.9165C117.92 16.0964 118.599 16.3962 119.159 16.816C119.719 17.2358 120.148 17.7855 120.448 18.4651C120.748 19.1248 120.898 19.9443 120.898 20.9238V22.6928C120.898 23.6723 120.748 24.5019 120.448 25.1815C120.148 25.8611 119.719 26.4109 119.159 26.8306C118.599 27.2504 117.92 27.5502 117.12 27.7301C116.32 27.91 115.431 28 114.451 28H96.1313C95.4717 28 95.1418 27.6702 95.1418 27.0105V25.1515C95.1418 24.5119 95.4717 24.192 96.1313 24.192H113.882C114.801 24.192 115.471 24.0221 115.891 23.6823C116.33 23.3225 116.55 22.7528 116.55 21.9732V21.5834C116.55 20.8039 116.33 20.2442 115.891 19.9043C115.471 19.5445 114.801 19.3646 113.882 19.3646H101.229C100.229 19.3646 99.3296 19.2747 98.53 19.0948C97.7504 18.9149 97.0808 18.615 96.5211 18.1953C95.9614 17.7755 95.5316 17.2358 95.2318 16.5761C94.9319 15.8965 94.782 15.0669 94.782 14.0875V12.3184C94.782 11.3389 94.9319 10.5094 95.2318 9.82975C95.5316 9.15012 95.9614 8.60041 96.5211 8.18064C97.0808 7.76086 97.7504 7.46102 98.53 7.28112C99.3296 7.10122 100.229 7.01127 101.229 7.01127H119.279C119.939 7.01127 120.268 7.34109 120.268 8.00073V9.85974C120.268 10.4994 119.939 10.8192 119.279 10.8192H101.798ZM150.05 22.6928C150.05 23.6723 149.9 24.5019 149.6 25.1815C149.3 25.8611 148.87 26.4109 148.311 26.8306C147.771 27.2504 147.101 27.5502 146.302 27.7301C145.502 27.91 144.613 28 143.633 28H129.781C127.782 28 126.252 27.4703 125.193 26.4109C124.154 25.3314 123.634 23.8023 123.634 21.8233V13.188C123.634 11.209 124.154 9.68983 125.193 8.6304C126.252 7.55098 127.782 7.01127 129.781 7.01127H148.131C148.77 7.01127 149.09 7.34109 149.09 8.00073V9.85974C149.09 10.4994 148.77 10.8192 148.131 10.8192H130.92C129.96 10.8192 129.221 11.0791 128.701 11.5988C128.201 12.0985 127.951 12.8281 127.951 13.7876V21.2236C127.951 22.1831 128.201 22.9227 128.701 23.4424C129.221 23.9422 129.96 24.192 130.92 24.192H143.063C143.963 24.192 144.633 24.0221 145.072 23.6823C145.512 23.3225 145.732 22.7528 145.732 21.9732V19.3646H139.405C138.746 19.3646 138.416 19.0348 138.416 18.3752V16.6361C138.416 15.9765 138.746 15.6466 139.405 15.6466H149.09C149.73 15.6466 150.05 15.9765 150.05 16.6361V22.6928ZM159.032 28C157.033 28 155.504 27.4703 154.445 26.4109C153.405 25.3314 152.886 23.8023 152.886 21.8233V13.188C152.886 11.209 153.405 9.68983 154.445 8.6304C155.504 7.55098 157.033 7.01127 159.032 7.01127H173.485C175.484 7.01127 177.013 7.55098 178.072 8.6304C179.132 9.68983 179.661 11.209 179.661 13.188V21.8233C179.661 23.8023 179.132 25.3314 178.072 26.4109C177.013 27.4703 175.484 28 173.485 28H159.032ZM172.375 24.192C173.335 24.192 174.064 23.9422 174.564 23.4424C175.084 22.9227 175.344 22.1831 175.344 21.2236V13.7876C175.344 12.8281 175.084 12.0985 174.564 11.5988C174.064 11.0791 173.335 10.8192 172.375 10.8192H160.172C159.212 10.8192 158.473 11.0791 157.953 11.5988C157.453 12.0985 157.203 12.8281 157.203 13.7876V21.2236C157.203 22.1831 157.453 22.9227 157.953 23.4424C158.473 23.9422 159.212 24.192 160.172 24.192H172.375ZM182.96 13.188C182.96 11.209 183.49 9.68983 184.549 8.6304C185.609 7.55098 187.138 7.01127 189.137 7.01127H202.87C204.868 7.01127 206.398 7.55098 207.457 8.6304C208.517 9.68983 209.046 11.209 209.046 13.188V27.0105C209.046 27.6702 208.716 28 208.057 28H205.688C205.028 28 204.699 27.6702 204.699 27.0105V13.7876C204.699 12.8281 204.439 12.0985 203.919 11.5988C203.419 11.0791 202.69 10.8192 201.73 10.8192H190.246C189.287 10.8192 188.547 11.0791 188.028 11.5988C187.528 12.0985 187.278 12.8281 187.278 13.7876V27.0105C187.278 27.6702 186.958 28 186.318 28H183.95C183.29 28 182.96 27.6702 182.96 27.0105V13.188Z" fill="white"/>
<circle cx="215.698" cy="25.2024" r="3.30238" fill="url(#paint1_linear_584_2106)"/>
<path d="M2.99582 43.1974C2.19461 43.1974 1.5879 42.9942 1.17569 42.5878C0.769276 42.1814 0.566071 41.6153 0.566071 40.8896V36.9794H1.24536V40.9419C1.24536 41.4934 1.39921 41.9056 1.70692 42.1785C2.01463 42.4514 2.44426 42.5878 2.99582 42.5878C3.54738 42.5878 3.97701 42.4514 4.28472 42.1785C4.59243 41.9056 4.74629 41.4934 4.74629 40.9419V36.9794H5.42557V40.8896C5.42557 41.6153 5.21946 42.1814 4.80725 42.5878C4.40084 42.9942 3.79703 43.1974 2.99582 43.1974ZM6.86667 38.8866H7.51983V39.5136C7.72303 39.2524 7.96978 39.0608 8.26007 38.9388C8.55617 38.8169 8.86969 38.756 9.20062 38.756C9.75218 38.756 10.1615 38.9011 10.4286 39.1914C10.7014 39.4817 10.8379 39.8707 10.8379 40.3584V43.0668H10.1673V40.4193C10.1673 40.0594 10.0802 39.7836 9.90603 39.592C9.73186 39.3946 9.45318 39.2959 9.06999 39.2959C8.42554 39.2959 7.91463 39.5862 7.53725 40.1668V43.0668H6.86667V38.8866ZM12.2733 36.631H12.9438V43.0668H12.2733V36.631ZM16.6694 43.1974C15.9089 43.1974 15.3138 43.0029 14.8841 42.614C14.4603 42.225 14.2484 41.6821 14.2484 40.9854C14.2484 40.3003 14.44 39.7575 14.8232 39.3569C15.2063 38.9563 15.7521 38.756 16.4604 38.756C16.9365 38.756 17.34 38.8489 17.6709 39.0346C18.0019 39.2146 18.2515 39.4643 18.4199 39.7836C18.5883 40.1029 18.6724 40.4658 18.6724 40.8722V41.238H14.8754C14.8986 41.714 15.0728 42.0711 15.3979 42.3091C15.7289 42.5472 16.1759 42.6662 16.7391 42.6662C17.012 42.6662 17.279 42.643 17.5403 42.5965C17.8074 42.5443 18.0454 42.4746 18.2544 42.3875V42.9536C18.0802 43.0233 17.8422 43.0813 17.5403 43.1278C17.2442 43.1742 16.9539 43.1974 16.6694 43.1974ZM18.0454 40.759C18.0338 40.3061 17.8945 39.9491 17.6274 39.6878C17.3603 39.4265 16.9684 39.2959 16.4517 39.2959C15.9466 39.2959 15.5605 39.4323 15.2934 39.7052C15.0264 39.9723 14.887 40.3235 14.8754 40.759H18.0454ZM21.4453 43.1974C20.9402 43.1974 20.5396 43.0726 20.2435 42.823C19.9532 42.5675 19.8081 42.2192 19.8081 41.7779C19.8081 41.3192 19.9503 40.968 20.2348 40.7241C20.5193 40.4745 20.9315 40.3497 21.4714 40.3497C22.0752 40.3497 22.5949 40.4745 23.0303 40.7241V40.4106C23.0303 40.0332 22.9229 39.7546 22.7081 39.5746C22.4933 39.3888 22.1536 39.2959 21.6891 39.2959C21.1957 39.2959 20.7399 39.3888 20.3219 39.5746V39.0085C20.496 38.933 20.7167 38.8721 20.9837 38.8256C21.2508 38.7792 21.5063 38.756 21.7501 38.756C22.412 38.756 22.9026 38.9069 23.2219 39.2088C23.5412 39.5049 23.7009 39.9171 23.7009 40.4455V43.0668H23.0738V42.5269C22.7081 42.9739 22.1652 43.1974 21.4453 43.1974ZM21.6108 42.6488C21.9243 42.6488 22.2059 42.5878 22.4555 42.4659C22.711 42.3382 22.9026 42.1611 23.0303 41.9347V41.2641C22.8039 41.1306 22.5774 41.0348 22.351 40.9767C22.1304 40.9128 21.8807 40.8809 21.6021 40.8809C21.2073 40.8809 20.9199 40.9564 20.7399 41.1073C20.5657 41.2525 20.4786 41.476 20.4786 41.7779C20.4786 42.3585 20.856 42.6488 21.6108 42.6488ZM26.4605 43.1974C26.1876 43.1974 25.8944 43.1568 25.5809 43.0755C25.2674 43 25.0235 42.9042 24.8493 42.7881V42.2221C25.07 42.3556 25.3225 42.463 25.607 42.5443C25.8973 42.6256 26.176 42.6662 26.4431 42.6662C26.803 42.6662 27.0614 42.6169 27.2181 42.5182C27.3807 42.4136 27.462 42.2598 27.462 42.0566C27.462 41.8998 27.4271 41.7779 27.3575 41.6908C27.2878 41.5979 27.1717 41.5166 27.0091 41.447C26.8466 41.3773 26.594 41.296 26.2515 41.2031C25.9147 41.1102 25.6448 41.0144 25.4415 40.9157C25.2441 40.8112 25.0932 40.6806 24.9887 40.5238C24.8842 40.3671 24.8319 40.1668 24.8319 39.9229C24.8319 39.5456 24.9829 39.2582 25.2848 39.0608C25.5925 38.8576 25.9989 38.756 26.504 38.756C26.7769 38.756 27.0323 38.7821 27.2704 38.8343C27.5142 38.8808 27.7174 38.9476 27.88 39.0346V39.6007C27.7116 39.5078 27.5084 39.4352 27.2704 39.383C27.0323 39.3249 26.7856 39.2959 26.5301 39.2959C26.1934 39.2959 25.9379 39.3453 25.7638 39.444C25.5896 39.5427 25.5025 39.7023 25.5025 39.9229C25.5025 40.0739 25.5315 40.19 25.5896 40.2713C25.6535 40.3526 25.7667 40.428 25.9292 40.4977C26.0976 40.5616 26.3647 40.6429 26.7304 40.7416C27.253 40.8867 27.6158 41.058 27.819 41.2554C28.0281 41.447 28.1326 41.714 28.1326 42.0566C28.1326 42.4107 27.9932 42.6894 27.7145 42.8926C27.4417 43.0958 27.0236 43.1974 26.4605 43.1974ZM29.4347 36.631H30.1052V39.4962C30.5058 39.0027 31.0603 38.756 31.7686 38.756C32.3202 38.756 32.7295 38.9011 32.9965 39.1914C33.2694 39.4817 33.4059 39.8707 33.4059 40.3584V43.0668H32.7353V40.4193C32.7353 40.0594 32.6482 39.7836 32.474 39.592C32.2998 39.3946 32.0212 39.2959 31.638 39.2959C30.9935 39.2959 30.4826 39.5862 30.1052 40.1668V43.0668H29.4347V36.631ZM35.2593 37.9809C35.1431 37.9809 35.0444 37.9402 34.9632 37.859C34.8819 37.7777 34.8412 37.679 34.8412 37.5629C34.8412 37.4467 34.8819 37.348 34.9632 37.2668C35.0444 37.1855 35.1431 37.1448 35.2593 37.1448C35.3754 37.1448 35.4741 37.1855 35.5554 37.2668C35.6425 37.348 35.686 37.4467 35.686 37.5629C35.686 37.679 35.6425 37.7777 35.5554 37.859C35.4741 37.9402 35.3754 37.9809 35.2593 37.9809ZM34.9283 38.8866H35.5989V43.0668H34.9283V38.8866ZM37.1691 38.8866H37.8223V39.5136C38.0255 39.2524 38.2723 39.0608 38.5625 38.9388C38.8586 38.8169 39.1722 38.756 39.5031 38.756C40.0547 38.756 40.464 38.9011 40.731 39.1914C41.0039 39.4817 41.1403 39.8707 41.1403 40.3584V43.0668H40.4698V40.4193C40.4698 40.0594 40.3827 39.7836 40.2085 39.592C40.0343 39.3946 39.7557 39.2959 39.3725 39.2959C38.728 39.2959 38.2171 39.5862 37.8397 40.1668V43.0668H37.1691V38.8866ZM44.7355 45.0698C44.4568 45.0698 44.184 45.0466 43.9169 45.0002C43.6498 44.9537 43.4234 44.8898 43.2376 44.8086V44.2425C43.6788 44.4399 44.1781 44.5386 44.7355 44.5386C45.3045 44.5386 45.7225 44.408 45.9896 44.1467C46.2624 43.8912 46.3989 43.5022 46.3989 42.9797V42.3614C46.0215 42.9188 45.4235 43.1974 44.6049 43.1974C44.1927 43.1974 43.8182 43.1074 43.4814 42.9275C43.1447 42.7417 42.8805 42.4804 42.6889 42.1437C42.4973 41.8069 42.4016 41.4208 42.4016 40.9854C42.4016 40.5442 42.4973 40.1552 42.6889 39.8184C42.8805 39.4817 43.1418 39.2204 43.4727 39.0346C43.8037 38.8489 44.1752 38.756 44.5875 38.756C45.0171 38.756 45.3742 38.8227 45.6586 38.9563C45.9431 39.084 46.1957 39.2959 46.4163 39.592V38.8866H47.0695V42.8926C47.0695 43.6009 46.8779 44.1409 46.4947 44.5125C46.1115 44.884 45.5251 45.0698 44.7355 45.0698ZM44.7268 42.6662C45.139 42.6662 45.4932 42.5617 45.7893 42.3527C46.0854 42.1437 46.2886 41.8563 46.3989 41.4905V40.4542C46.2828 40.0884 46.0767 39.8039 45.7806 39.6007C45.4845 39.3975 45.1332 39.2959 44.7268 39.2959C44.4191 39.2959 44.1375 39.3685 43.882 39.5136C43.6324 39.653 43.435 39.8504 43.2898 40.1058C43.1447 40.3613 43.0721 40.6545 43.0721 40.9854C43.0721 41.3221 43.1447 41.6182 43.2898 41.8737C43.435 42.1234 43.6324 42.3179 43.882 42.4572C44.1375 42.5965 44.4191 42.6662 44.7268 42.6662ZM52.1304 36.9794H52.8097V43.0668H52.1304V36.9794ZM54.2965 38.8866H54.9497V39.5136C55.1529 39.2524 55.3996 39.0608 55.6899 38.9388C55.986 38.8169 56.2995 38.756 56.6305 38.756C57.182 38.756 57.5913 38.9011 57.8584 39.1914C58.1313 39.4817 58.2677 39.8707 58.2677 40.3584V43.0668H57.5972V40.4193C57.5972 40.0594 57.5101 39.7836 57.3359 39.592C57.1617 39.3946 56.883 39.2959 56.4998 39.2959C55.8554 39.2959 55.3445 39.5862 54.9671 40.1668V43.0668H54.2965V38.8866ZM59.7031 38.8866H60.3563V39.5136C60.5595 39.2524 60.8062 39.0608 61.0965 38.9388C61.3926 38.8169 61.7061 38.756 62.0371 38.756C62.5886 38.756 62.9979 38.9011 63.265 39.1914C63.5379 39.4817 63.6743 39.8707 63.6743 40.3584V43.0668H63.0037V40.4193C63.0037 40.0594 62.9167 39.7836 62.7425 39.592C62.5683 39.3946 62.2896 39.2959 61.9064 39.2959C61.262 39.2959 60.7511 39.5862 60.3737 40.1668V43.0668H59.7031V38.8866ZM67.1245 43.1974C66.6716 43.1974 66.2681 43.1074 65.914 42.9275C65.5656 42.7475 65.2927 42.492 65.0953 42.1611C64.9037 41.8244 64.808 41.4325 64.808 40.9854C64.808 40.5442 64.9067 40.1552 65.1041 39.8184C65.3014 39.4817 65.5743 39.2204 65.9227 39.0346C66.2768 38.8489 66.6774 38.756 67.1245 38.756C67.5715 38.756 67.9692 38.8489 68.3176 39.0346C68.6717 39.2204 68.9475 39.4817 69.1449 39.8184C69.3423 40.1552 69.441 40.5442 69.441 40.9854C69.441 41.4325 69.3423 41.8244 69.1449 42.1611C68.9533 42.492 68.6805 42.7475 68.3263 42.9275C67.9779 43.1074 67.5773 43.1974 67.1245 43.1974ZM67.1245 42.6662C67.6238 42.6662 68.0215 42.5153 68.3176 42.2133C68.6195 41.9056 68.7704 41.4963 68.7704 40.9854C68.7704 40.4687 68.6195 40.0594 68.3176 39.7575C68.0215 39.4498 67.6238 39.2959 67.1245 39.2959C66.6252 39.2959 66.2246 39.4498 65.9227 39.7575C65.6266 40.0594 65.4785 40.4687 65.4785 40.9854C65.4785 41.4963 65.6266 41.9056 65.9227 42.2133C66.2246 42.5153 66.6252 42.6662 67.1245 42.6662ZM70.0019 38.8866H70.716L72.0398 42.2395L73.3635 38.8866H74.0863L72.3881 43.0668H71.6914L70.0019 38.8866ZM76.4674 43.1974C75.9623 43.1974 75.5617 43.0726 75.2656 42.823C74.9753 42.5675 74.8302 42.2192 74.8302 41.7779C74.8302 41.3192 74.9724 40.968 75.2569 40.7241C75.5414 40.4745 75.9536 40.3497 76.4936 40.3497C77.0974 40.3497 77.617 40.4745 78.0524 40.7241V40.4106C78.0524 40.0332 77.945 39.7546 77.7302 39.5746C77.5154 39.3888 77.1758 39.2959 76.7113 39.2959C76.2178 39.2959 75.762 39.3888 75.344 39.5746V39.0085C75.5182 38.933 75.7388 38.8721 76.0059 38.8256C76.2729 38.7792 76.5284 38.756 76.7722 38.756C77.4341 38.756 77.9247 38.9069 78.244 39.2088C78.5634 39.5049 78.723 39.9171 78.723 40.4455V43.0668H78.096V42.5269C77.7302 42.9739 77.1874 43.1974 76.4674 43.1974ZM76.6329 42.6488C76.9464 42.6488 77.228 42.5878 77.4777 42.4659C77.7331 42.3382 77.9247 42.1611 78.0524 41.9347V41.2641C77.826 41.1306 77.5996 41.0348 77.3732 40.9767C77.1525 40.9128 76.9029 40.8809 76.6242 40.8809C76.2294 40.8809 75.942 40.9564 75.762 41.1073C75.5879 41.2525 75.5008 41.476 75.5008 41.7779C75.5008 42.3585 75.8781 42.6488 76.6329 42.6488ZM81.4849 43.1974C81.0901 43.1974 80.7824 43.0813 80.5617 42.8491C80.3469 42.6169 80.2395 42.2859 80.2395 41.8563V39.4091H79.5863V38.8866H80.2395V37.6325H80.9101V38.8866H81.9638V39.4091H80.9101V41.8737C80.9101 42.164 80.9681 42.3701 81.0843 42.492C81.2004 42.6081 81.4123 42.6662 81.72 42.6662C81.8709 42.6662 82.0306 42.6314 82.199 42.5617V43.1104C82.0074 43.1684 81.7693 43.1974 81.4849 43.1974ZM83.7947 37.9809C83.6786 37.9809 83.5799 37.9402 83.4986 37.859C83.4173 37.7777 83.3767 37.679 83.3767 37.5629C83.3767 37.4467 83.4173 37.348 83.4986 37.2668C83.5799 37.1855 83.6786 37.1448 83.7947 37.1448C83.9108 37.1448 84.0095 37.1855 84.0908 37.2668C84.1779 37.348 84.2215 37.4467 84.2215 37.5629C84.2215 37.679 84.1779 37.7777 84.0908 37.859C84.0095 37.9402 83.9108 37.9809 83.7947 37.9809ZM83.4638 38.8866H84.1344V43.0668H83.4638V38.8866ZM87.847 43.1974C87.3941 43.1974 86.9906 43.1074 86.6364 42.9275C86.2881 42.7475 86.0152 42.492 85.8178 42.1611C85.6262 41.8244 85.5304 41.4325 85.5304 40.9854C85.5304 40.5442 85.6291 40.1552 85.8265 39.8184C86.0239 39.4817 86.2968 39.2204 86.6451 39.0346C86.9993 38.8489 87.3999 38.756 87.847 38.756C88.294 38.756 88.6917 38.8489 89.0401 39.0346C89.3942 39.2204 89.67 39.4817 89.8674 39.8184C90.0648 40.1552 90.1635 40.5442 90.1635 40.9854C90.1635 41.4325 90.0648 41.8244 89.8674 42.1611C89.6758 42.492 89.4029 42.7475 89.0488 42.9275C88.7004 43.1074 88.2998 43.1974 87.847 43.1974ZM87.847 42.6662C88.3463 42.6662 88.744 42.5153 89.0401 42.2133C89.342 41.9056 89.4929 41.4963 89.4929 40.9854C89.4929 40.4687 89.342 40.0594 89.0401 39.7575C88.744 39.4498 88.3463 39.2959 87.847 39.2959C87.3477 39.2959 86.9471 39.4498 86.6451 39.7575C86.3491 40.0594 86.201 40.4687 86.201 40.9854C86.201 41.4963 86.3491 41.9056 86.6451 42.2133C86.9471 42.5153 87.3477 42.6662 87.847 42.6662ZM91.4684 38.8866H92.1215V39.5136C92.3248 39.2524 92.5715 39.0608 92.8618 38.9388C93.1579 38.8169 93.4714 38.756 93.8023 38.756C94.3539 38.756 94.7632 38.9011 95.0303 39.1914C95.3032 39.4817 95.4396 39.8707 95.4396 40.3584V43.0668H94.769V40.4193C94.769 40.0594 94.6819 39.7836 94.5078 39.592C94.3336 39.3946 94.0549 39.2959 93.6717 39.2959C93.0273 39.2959 92.5163 39.5862 92.139 40.1668V43.0668H91.4684V38.8866ZM97.3975 42.6314H98.1029L97.3104 44.347H96.7008L97.3975 42.6314ZM104.579 37.5541H102.628V36.9794H107.209V37.5541H105.258V43.0668H104.579V37.5541ZM107.686 38.8866H108.339V39.7052C108.676 39.1595 109.306 38.8866 110.229 38.8866V39.4265C109.219 39.4265 108.594 39.7604 108.356 40.428V43.0668H107.686V38.8866ZM112.429 43.1974C111.924 43.1974 111.524 43.0726 111.227 42.823C110.937 42.5675 110.792 42.2192 110.792 41.7779C110.792 41.3192 110.934 40.968 111.219 40.7241C111.503 40.4745 111.915 40.3497 112.455 40.3497C113.059 40.3497 113.579 40.4745 114.014 40.7241V40.4106C114.014 40.0332 113.907 39.7546 113.692 39.5746C113.477 39.3888 113.138 39.2959 112.673 39.2959C112.18 39.2959 111.724 39.3888 111.306 39.5746V39.0085C111.48 38.933 111.701 38.8721 111.968 38.8256C112.235 38.7792 112.49 38.756 112.734 38.756C113.396 38.756 113.887 38.9069 114.206 39.2088C114.525 39.5049 114.685 39.9171 114.685 40.4455V43.0668H114.058V42.5269C113.692 42.9739 113.149 43.1974 112.429 43.1974ZM112.595 42.6488C112.908 42.6488 113.19 42.5878 113.439 42.4659C113.695 42.3382 113.887 42.1611 114.014 41.9347V41.2641C113.788 41.1306 113.561 41.0348 113.335 40.9767C113.114 40.9128 112.865 40.8809 112.586 40.8809C112.191 40.8809 111.904 40.9564 111.724 41.1073C111.55 41.2525 111.463 41.476 111.463 41.7779C111.463 42.3585 111.84 42.6488 112.595 42.6488ZM116.118 38.8866H116.771V39.5136C116.974 39.2524 117.221 39.0608 117.511 38.9388C117.807 38.8169 118.121 38.756 118.452 38.756C119.003 38.756 119.412 38.9011 119.68 39.1914C119.952 39.4817 120.089 39.8707 120.089 40.3584V43.0668H119.418V40.4193C119.418 40.0594 119.331 39.7836 119.157 39.592C118.983 39.3946 118.704 39.2959 118.321 39.2959C117.677 39.2959 117.166 39.5862 116.788 40.1668V43.0668H116.118V38.8866ZM122.979 43.1974C122.706 43.1974 122.413 43.1568 122.099 43.0755C121.785 43 121.542 42.9042 121.367 42.7881V42.2221C121.588 42.3556 121.841 42.463 122.125 42.5443C122.415 42.6256 122.694 42.6662 122.961 42.6662C123.321 42.6662 123.579 42.6169 123.736 42.5182C123.899 42.4136 123.98 42.2598 123.98 42.0566C123.98 41.8998 123.945 41.7779 123.876 41.6908C123.806 41.5979 123.69 41.5166 123.527 41.447C123.365 41.3773 123.112 41.296 122.77 41.2031C122.433 41.1102 122.163 41.0144 121.96 40.9157C121.762 40.8112 121.611 40.6806 121.507 40.5238C121.402 40.3671 121.35 40.1668 121.35 39.9229C121.35 39.5456 121.501 39.2582 121.803 39.0608C122.111 38.8576 122.517 38.756 123.022 38.756C123.295 38.756 123.55 38.7821 123.789 38.8343C124.032 38.8808 124.236 38.9476 124.398 39.0346V39.6007C124.23 39.5078 124.027 39.4352 123.789 39.383C123.55 39.3249 123.304 39.2959 123.048 39.2959C122.712 39.2959 122.456 39.3453 122.282 39.444C122.108 39.5427 122.021 39.7023 122.021 39.9229C122.021 40.0739 122.05 40.19 122.108 40.2713C122.172 40.3526 122.285 40.428 122.447 40.4977C122.616 40.5616 122.883 40.6429 123.249 40.7416C123.771 40.8867 124.134 41.058 124.337 41.2554C124.546 41.447 124.651 41.714 124.651 42.0566C124.651 42.4107 124.511 42.6894 124.233 42.8926C123.96 43.0958 123.542 43.1974 122.979 43.1974ZM126.258 39.4091H125.604V38.8866H126.258V37.9635C126.258 37.5106 126.38 37.1681 126.623 36.9358C126.873 36.7036 127.207 36.5875 127.625 36.5875C127.845 36.5875 128.052 36.6165 128.243 36.6746V37.2406C128.081 37.1652 127.912 37.1274 127.738 37.1274C127.459 37.1274 127.253 37.2 127.12 37.3451C126.992 37.4845 126.928 37.7022 126.928 37.9983V38.8866H127.991V39.4091H126.928V43.0668H126.258V39.4091ZM131.035 43.1974C130.583 43.1974 130.179 43.1074 129.825 42.9275C129.477 42.7475 129.204 42.492 129.006 42.1611C128.815 41.8244 128.719 41.4325 128.719 40.9854C128.719 40.5442 128.818 40.1552 129.015 39.8184C129.212 39.4817 129.485 39.2204 129.834 39.0346C130.188 38.8489 130.588 38.756 131.035 38.756C131.482 38.756 131.88 38.8489 132.228 39.0346C132.583 39.2204 132.858 39.4817 133.056 39.8184C133.253 40.1552 133.352 40.5442 133.352 40.9854C133.352 41.4325 133.253 41.8244 133.056 42.1611C132.864 42.492 132.591 42.7475 132.237 42.9275C131.889 43.1074 131.488 43.1974 131.035 43.1974ZM131.035 42.6662C131.535 42.6662 131.932 42.5153 132.228 42.2133C132.53 41.9056 132.681 41.4963 132.681 40.9854C132.681 40.4687 132.53 40.0594 132.228 39.7575C131.932 39.4498 131.535 39.2959 131.035 39.2959C130.536 39.2959 130.135 39.4498 129.834 39.7575C129.537 40.0594 129.389 40.4687 129.389 40.9854C129.389 41.4963 129.537 41.9056 129.834 42.2133C130.135 42.5153 130.536 42.6662 131.035 42.6662ZM134.657 38.8866H135.31V39.7052C135.647 39.1595 136.277 38.8866 137.2 38.8866V39.4265C136.19 39.4265 135.565 39.7604 135.327 40.428V43.0668H134.657V38.8866ZM138.328 38.8866H138.973V39.5398C139.373 39.0172 139.87 38.756 140.462 38.756C140.81 38.756 141.08 38.8169 141.272 38.9388C141.469 39.0608 141.612 39.2437 141.699 39.4875C141.885 39.2378 142.114 39.055 142.387 38.9388C142.665 38.8169 142.95 38.756 143.24 38.756C143.739 38.756 144.102 38.8837 144.329 39.1391C144.555 39.3946 144.668 39.772 144.668 40.2713V43.0668H144.007V40.3497C144.007 39.9607 143.937 39.6878 143.798 39.531C143.664 39.3743 143.423 39.2959 143.075 39.2959C142.575 39.2959 142.163 39.5194 141.838 39.9665C141.855 40.0478 141.864 40.1813 141.864 40.3671V43.0668H141.211V40.3671C141.211 39.9781 141.147 39.7023 141.019 39.5398C140.892 39.3772 140.654 39.2959 140.305 39.2959C139.806 39.2959 139.368 39.5746 138.99 40.1319V43.0668H138.328V38.8866ZM146.526 37.9809C146.41 37.9809 146.311 37.9402 146.23 37.859C146.148 37.7777 146.108 37.679 146.108 37.5629C146.108 37.4467 146.148 37.348 146.23 37.2668C146.311 37.1855 146.41 37.1448 146.526 37.1448C146.642 37.1448 146.741 37.1855 146.822 37.2668C146.909 37.348 146.953 37.4467 146.953 37.5629C146.953 37.679 146.909 37.7777 146.822 37.859C146.741 37.9402 146.642 37.9809 146.526 37.9809ZM146.195 38.8866H146.865V43.0668H146.195V38.8866ZM148.436 38.8866H149.089V39.5136C149.292 39.2524 149.539 39.0608 149.829 38.9388C150.125 38.8169 150.439 38.756 150.77 38.756C151.321 38.756 151.731 38.9011 151.998 39.1914C152.27 39.4817 152.407 39.8707 152.407 40.3584V43.0668H151.736V40.4193C151.736 40.0594 151.649 39.7836 151.475 39.592C151.301 39.3946 151.022 39.2959 150.639 39.2959C149.995 39.2959 149.484 39.5862 149.106 40.1668V43.0668H148.436V38.8866ZM156.002 45.0698C155.723 45.0698 155.451 45.0466 155.183 45.0002C154.916 44.9537 154.69 44.8898 154.504 44.8086V44.2425C154.945 44.4399 155.445 44.5386 156.002 44.5386C156.571 44.5386 156.989 44.408 157.256 44.1467C157.529 43.8912 157.665 43.5022 157.665 42.9797V42.3614C157.288 42.9188 156.69 43.1974 155.871 43.1974C155.459 43.1974 155.085 43.1074 154.748 42.9275C154.411 42.7417 154.147 42.4804 153.956 42.1437C153.764 41.8069 153.668 41.4208 153.668 40.9854C153.668 40.5442 153.764 40.1552 153.956 39.8184C154.147 39.4817 154.408 39.2204 154.739 39.0346C155.07 38.8489 155.442 38.756 155.854 38.756C156.284 38.756 156.641 38.8227 156.925 38.9563C157.21 39.084 157.462 39.2959 157.683 39.592V38.8866H158.336V42.8926C158.336 43.6009 158.144 44.1409 157.761 44.5125C157.378 44.884 156.792 45.0698 156.002 45.0698ZM155.993 42.6662C156.406 42.6662 156.76 42.5617 157.056 42.3527C157.352 42.1437 157.555 41.8563 157.665 41.4905V40.4542C157.549 40.0884 157.343 39.8039 157.047 39.6007C156.751 39.3975 156.4 39.2959 155.993 39.2959C155.686 39.2959 155.404 39.3685 155.149 39.5136C154.899 39.653 154.702 39.8504 154.556 40.1058C154.411 40.3613 154.339 40.6545 154.339 40.9854C154.339 41.3221 154.411 41.6182 154.556 41.8737C154.702 42.1234 154.899 42.3179 155.149 42.4572C155.404 42.5965 155.686 42.6662 155.993 42.6662ZM163.388 36.9794H166.088C166.616 36.9794 167.02 37.1187 167.299 37.3974C167.577 37.6703 167.717 38.0738 167.717 38.6079C167.717 38.9214 167.644 39.1943 167.499 39.4265C167.354 39.653 167.162 39.8213 166.924 39.9316C167.592 40.1058 167.926 40.5848 167.926 41.3686C167.926 41.7111 167.85 42.013 167.699 42.2743C167.554 42.5298 167.351 42.7272 167.09 42.8665C166.834 43 166.55 43.0668 166.236 43.0668H163.388V36.9794ZM166.036 39.6617C166.361 39.6617 166.608 39.5746 166.776 39.4004C166.95 39.2204 167.037 38.9621 167.037 38.6253C167.037 38.2421 166.953 37.9693 166.785 37.8067C166.616 37.6383 166.343 37.5541 165.966 37.5541H164.068V39.6617H166.036ZM166.088 42.492C166.471 42.492 166.759 42.4049 166.95 42.2308C167.148 42.0566 167.246 41.7634 167.246 41.3512C167.246 40.9506 167.145 40.6661 166.941 40.4977C166.738 40.3235 166.422 40.2365 165.992 40.2365H164.068V42.492H166.088ZM170.918 43.1974C170.361 43.1974 169.931 43.0465 169.629 42.7446C169.333 42.4427 169.185 42.0392 169.185 41.5341V38.8866H169.856V41.5689C169.856 42.3004 170.236 42.6662 170.997 42.6662C171.316 42.6662 171.595 42.5965 171.833 42.4572C172.076 42.3179 172.294 42.0972 172.486 41.7953V38.8866H173.156V43.0668H172.503V42.4398C172.126 42.9449 171.597 43.1974 170.918 43.1974ZM176.09 43.1974C175.817 43.1974 175.523 43.1568 175.21 43.0755C174.896 43 174.653 42.9042 174.478 42.7881V42.2221C174.699 42.3556 174.952 42.463 175.236 42.5443C175.526 42.6256 175.805 42.6662 176.072 42.6662C176.432 42.6662 176.69 42.6169 176.847 42.5182C177.01 42.4136 177.091 42.2598 177.091 42.0566C177.091 41.8998 177.056 41.7779 176.987 41.6908C176.917 41.5979 176.801 41.5166 176.638 41.447C176.476 41.3773 176.223 41.296 175.881 41.2031C175.544 41.1102 175.274 41.0144 175.071 40.9157C174.873 40.8112 174.722 40.6806 174.618 40.5238C174.513 40.3671 174.461 40.1668 174.461 39.9229C174.461 39.5456 174.612 39.2582 174.914 39.0608C175.222 38.8576 175.628 38.756 176.133 38.756C176.406 38.756 176.661 38.7821 176.899 38.8343C177.143 38.8808 177.347 38.9476 177.509 39.0346V39.6007C177.341 39.5078 177.138 39.4352 176.899 39.383C176.661 39.3249 176.415 39.2959 176.159 39.2959C175.823 39.2959 175.567 39.3453 175.393 39.444C175.219 39.5427 175.132 39.7023 175.132 39.9229C175.132 40.0739 175.161 40.19 175.219 40.2713C175.283 40.3526 175.396 40.428 175.558 40.4977C175.727 40.5616 175.994 40.6429 176.36 40.7416C176.882 40.8867 177.245 41.058 177.448 41.2554C177.657 41.447 177.762 41.714 177.762 42.0566C177.762 42.4107 177.622 42.6894 177.344 42.8926C177.071 43.0958 176.653 43.1974 176.09 43.1974ZM179.482 37.9809C179.366 37.9809 179.267 37.9402 179.186 37.859C179.104 37.7777 179.064 37.679 179.064 37.5629C179.064 37.4467 179.104 37.348 179.186 37.2668C179.267 37.1855 179.366 37.1448 179.482 37.1448C179.598 37.1448 179.697 37.1855 179.778 37.2668C179.865 37.348 179.908 37.4467 179.908 37.5629C179.908 37.679 179.865 37.7777 179.778 37.859C179.697 37.9402 179.598 37.9809 179.482 37.9809ZM179.151 38.8866H179.821V43.0668H179.151V38.8866ZM181.392 38.8866H182.045V39.5136C182.248 39.2524 182.495 39.0608 182.785 38.9388C183.081 38.8169 183.395 38.756 183.726 38.756C184.277 38.756 184.686 38.9011 184.954 39.1914C185.226 39.4817 185.363 39.8707 185.363 40.3584V43.0668H184.692V40.4193C184.692 40.0594 184.605 39.7836 184.431 39.592C184.257 39.3946 183.978 39.2959 183.595 39.2959C182.951 39.2959 182.44 39.5862 182.062 40.1668V43.0668H181.392V38.8866ZM189.045 43.1974C188.285 43.1974 187.689 43.0029 187.26 42.614C186.836 42.225 186.624 41.6821 186.624 40.9854C186.624 40.3003 186.816 39.7575 187.199 39.3569C187.582 38.9563 188.128 38.756 188.836 38.756C189.312 38.756 189.716 38.8489 190.047 39.0346C190.378 39.2146 190.627 39.4643 190.796 39.7836C190.964 40.1029 191.048 40.4658 191.048 40.8722V41.238H187.251C187.274 41.714 187.448 42.0711 187.774 42.3091C188.105 42.5472 188.552 42.6662 189.115 42.6662C189.388 42.6662 189.655 42.643 189.916 42.5965C190.183 42.5443 190.421 42.4746 190.63 42.3875V42.9536C190.456 43.0233 190.218 43.0813 189.916 43.1278C189.62 43.1742 189.33 43.1974 189.045 43.1974ZM190.421 40.759C190.409 40.3061 190.27 39.9491 190.003 39.6878C189.736 39.4265 189.344 39.2959 188.827 39.2959C188.322 39.2959 187.936 39.4323 187.669 39.7052C187.402 39.9723 187.263 40.3235 187.251 40.759H190.421ZM193.812 43.1974C193.539 43.1974 193.246 43.1568 192.933 43.0755C192.619 43 192.375 42.9042 192.201 42.7881V42.2221C192.422 42.3556 192.674 42.463 192.959 42.5443C193.249 42.6256 193.528 42.6662 193.795 42.6662C194.155 42.6662 194.413 42.6169 194.57 42.5182C194.732 42.4136 194.814 42.2598 194.814 42.0566C194.814 41.8998 194.779 41.7779 194.709 41.6908C194.64 41.5979 194.523 41.5166 194.361 41.447C194.198 41.3773 193.946 41.296 193.603 41.2031C193.267 41.1102 192.997 41.0144 192.793 40.9157C192.596 40.8112 192.445 40.6806 192.34 40.5238C192.236 40.3671 192.184 40.1668 192.184 39.9229C192.184 39.5456 192.335 39.2582 192.637 39.0608C192.944 38.8576 193.351 38.756 193.856 38.756C194.129 38.756 194.384 38.7821 194.622 38.8343C194.866 38.8808 195.069 38.9476 195.232 39.0346V39.6007C195.063 39.5078 194.86 39.4352 194.622 39.383C194.384 39.3249 194.137 39.2959 193.882 39.2959C193.545 39.2959 193.29 39.3453 193.116 39.444C192.941 39.5427 192.854 39.7023 192.854 39.9229C192.854 40.0739 192.883 40.19 192.941 40.2713C193.005 40.3526 193.118 40.428 193.281 40.4977C193.449 40.5616 193.716 40.6429 194.082 40.7416C194.605 40.8867 194.968 41.058 195.171 41.2554C195.38 41.447 195.484 41.714 195.484 42.0566C195.484 42.4107 195.345 42.6894 195.066 42.8926C194.793 43.0958 194.375 43.1974 193.812 43.1974ZM198.02 43.1974C197.747 43.1974 197.454 43.1568 197.14 43.0755C196.827 43 196.583 42.9042 196.409 42.7881V42.2221C196.629 42.3556 196.882 42.463 197.166 42.5443C197.457 42.6256 197.735 42.6662 198.002 42.6662C198.362 42.6662 198.621 42.6169 198.777 42.5182C198.94 42.4136 199.021 42.2598 199.021 42.0566C199.021 41.8998 198.986 41.7779 198.917 41.6908C198.847 41.5979 198.731 41.5166 198.568 41.447C198.406 41.3773 198.153 41.296 197.811 41.2031C197.474 41.1102 197.204 41.0144 197.001 40.9157C196.803 40.8112 196.652 40.6806 196.548 40.5238C196.443 40.3671 196.391 40.1668 196.391 39.9229C196.391 39.5456 196.542 39.2582 196.844 39.0608C197.152 38.8576 197.558 38.756 198.063 38.756C198.336 38.756 198.592 38.7821 198.83 38.8343C199.073 38.8808 199.277 38.9476 199.439 39.0346V39.6007C199.271 39.5078 199.068 39.4352 198.83 39.383C198.592 39.3249 198.345 39.2959 198.089 39.2959C197.753 39.2959 197.497 39.3453 197.323 39.444C197.149 39.5427 197.062 39.7023 197.062 39.9229C197.062 40.0739 197.091 40.19 197.149 40.2713C197.213 40.3526 197.326 40.428 197.488 40.4977C197.657 40.5616 197.924 40.6429 198.29 40.7416C198.812 40.8867 199.175 41.058 199.378 41.2554C199.587 41.447 199.692 41.714 199.692 42.0566C199.692 42.4107 199.552 42.6894 199.274 42.8926C199.001 43.0958 198.583 43.1974 198.02 43.1974ZM203.241 43.1974C202.48 43.1974 201.885 43.0029 201.455 42.614C201.032 42.225 200.82 41.6821 200.82 40.9854C200.82 40.3003 201.011 39.7575 201.394 39.3569C201.778 38.9563 202.323 38.756 203.032 38.756C203.508 38.756 203.911 38.8489 204.242 39.0346C204.573 39.2146 204.823 39.4643 204.991 39.7836C205.16 40.1029 205.244 40.4658 205.244 40.8722V41.238H201.447C201.47 41.714 201.644 42.0711 201.969 42.3091C202.3 42.5472 202.747 42.6662 203.31 42.6662C203.583 42.6662 203.85 42.643 204.112 42.5965C204.379 42.5443 204.617 42.4746 204.826 42.3875V42.9536C204.652 43.0233 204.414 43.0813 204.112 43.1278C203.816 43.1742 203.525 43.1974 203.241 43.1974ZM204.617 40.759C204.605 40.3061 204.466 39.9491 204.199 39.6878C203.932 39.4265 203.54 39.2959 203.023 39.2959C202.518 39.2959 202.132 39.4323 201.865 39.7052C201.598 39.9723 201.458 40.3235 201.447 40.759H204.617ZM208.008 43.1974C207.735 43.1974 207.442 43.1568 207.128 43.0755C206.815 43 206.571 42.9042 206.397 42.7881V42.2221C206.617 42.3556 206.87 42.463 207.154 42.5443C207.445 42.6256 207.723 42.6662 207.991 42.6662C208.35 42.6662 208.609 42.6169 208.766 42.5182C208.928 42.4136 209.009 42.2598 209.009 42.0566C209.009 41.8998 208.975 41.7779 208.905 41.6908C208.835 41.5979 208.719 41.5166 208.557 41.447C208.394 41.3773 208.141 41.296 207.799 41.2031C207.462 41.1102 207.192 41.0144 206.989 40.9157C206.792 40.8112 206.641 40.6806 206.536 40.5238C206.432 40.3671 206.379 40.1668 206.379 39.9229C206.379 39.5456 206.53 39.2582 206.832 39.0608C207.14 38.8576 207.546 38.756 208.051 38.756C208.324 38.756 208.58 38.7821 208.818 38.8343C209.062 38.8808 209.265 38.9476 209.427 39.0346V39.6007C209.259 39.5078 209.056 39.4352 208.818 39.383C208.58 39.3249 208.333 39.2959 208.078 39.2959C207.741 39.2959 207.485 39.3453 207.311 39.444C207.137 39.5427 207.05 39.7023 207.05 39.9229C207.05 40.0739 207.079 40.19 207.137 40.2713C207.201 40.3526 207.314 40.428 207.477 40.4977C207.645 40.5616 207.912 40.6429 208.278 40.7416C208.8 40.8867 209.163 41.058 209.366 41.2554C209.576 41.447 209.68 41.714 209.68 42.0566C209.68 42.4107 209.541 42.6894 209.262 42.8926C208.989 43.0958 208.571 43.1974 208.008 43.1974Z" fill="white"/>
<defs>
<linearGradient id="paint0_linear_584_2106" x1="-1.63482e-07" y1="7.29981" x2="9.90715" y2="17.5546" gradientUnits="userSpaceOnUse">
<stop offset="0.218568" stop-color="#A71A7F"/>
<stop offset="0.766282" stop-color="#40005B"/>
</linearGradient>
<linearGradient id="paint1_linear_584_2106" x1="212.396" y1="21.9572" x2="217.945" y2="27.0057" gradientUnits="userSpaceOnUse">
<stop stop-color="#40005B"/>
<stop offset="0.882296" stop-color="#A71A7F"/>
</linearGradient>
</defs>
</svg>
