<svg width="219" height="48" viewBox="0 0 219 48" fill="none" xmlns="http://www.w3.org/2000/svg">
<path d="M19.0989 7.19595C21.4376 7.19595 23.2066 7.81561 24.406 9.05494C25.6253 10.2743 26.235 12.0333 26.235 14.3321V21.0484C26.235 23.3472 25.6253 25.1162 24.406 26.3556C23.2066 27.5749 21.4376 28.1846 19.0989 28.1846H1.01865C0.359011 28.1846 0.0291901 27.8548 0.0291901 27.1951V21.1384L4.37684 17.0906V24.3766H17.9895C19.2688 24.3766 20.2383 24.0468 20.8979 23.3872C21.5575 22.7275 21.8874 21.7681 21.8874 20.5087V14.8718C21.8874 13.6125 21.5575 12.653 20.8979 11.9933C20.2383 11.3337 19.2688 11.0039 17.9895 11.0039H10.9434L14.9013 7.19595H19.0989Z" fill="#40005B"/>
<path d="M0.00619349 8.16362V19.1894L13.1929 7.20486H0.969898C0.102564 7.10898 -0.0339609 7.80408 0.00619349 8.16362Z" fill="url(#paint0_linear_287_730)"/>
<path d="M34.6912 21.2237C34.6912 22.1831 34.9411 22.9227 35.4408 23.4425C35.9606 23.9422 36.7002 24.1921 37.6596 24.1921H54.9902C55.6299 24.1921 55.9497 24.5119 55.9497 25.1515V27.0105C55.9497 27.6702 55.6299 28 54.9902 28H36.5203C34.5213 28 32.9922 27.4703 31.9327 26.4109C30.8933 25.3314 30.3736 23.8023 30.3736 21.8233V13.188C30.3736 11.2091 30.8933 9.68991 31.9327 8.63049C32.9922 7.55107 34.5213 7.01136 36.5203 7.01136H54.9902C55.6299 7.01136 55.9497 7.34118 55.9497 8.00083V9.85982C55.9497 10.4995 55.6299 10.8193 54.9902 10.8193H37.6596C36.7002 10.8193 35.9606 11.0792 35.4408 11.5989C34.9411 12.0986 34.6912 12.8282 34.6912 13.7877V15.6467H52.5915C53.2312 15.6467 53.551 15.9765 53.551 16.6362V18.3752C53.551 19.0349 53.2312 19.3647 52.5915 19.3647H34.6912V21.2237ZM70.2607 28C69.8409 28 69.4711 27.93 69.1513 27.7901C68.8314 27.6302 68.5816 27.3803 68.4017 27.0405L57.6375 8.12076C57.5176 7.88089 57.4976 7.64102 57.5775 7.40115C57.6775 7.14129 57.8874 7.01136 58.2072 7.01136H60.9957C61.3755 7.01136 61.6553 7.07133 61.8352 7.19127C62.0351 7.3112 62.205 7.48111 62.3449 7.70099L71.43 24.222L80.5451 7.70099C80.685 7.48111 80.8449 7.3112 81.0248 7.19127C81.2247 7.07133 81.5146 7.01136 81.8944 7.01136H84.5629C84.8827 7.01136 85.0826 7.14129 85.1626 7.40115C85.2625 7.64102 85.2425 7.88089 85.1026 8.12076L74.3684 27.0405C74.1885 27.3803 73.9387 27.6302 73.6188 27.7901C73.299 27.93 72.9292 28 72.5094 28H70.2607ZM91.7956 27.0105C91.7956 27.6702 91.4657 28 90.8061 28H88.4374C87.7777 28 87.4479 27.6702 87.4479 27.0105V8.00083C87.4479 7.34118 87.7777 7.01136 88.4374 7.01136H90.8061C91.4657 7.01136 91.7956 7.34118 91.7956 8.00083V27.0105ZM101.798 10.8193C100.019 10.8193 99.1296 11.5589 99.1296 13.0381V13.4279C99.1296 14.2075 99.3395 14.7772 99.7593 15.137C100.199 15.4768 100.879 15.6467 101.798 15.6467H114.451C115.431 15.6467 116.32 15.7366 117.12 15.9165C117.919 16.0964 118.599 16.3963 119.159 16.8161C119.718 17.2358 120.148 17.7855 120.448 18.4652C120.748 19.1248 120.898 19.9444 120.898 20.9238V22.6929C120.898 23.6723 120.748 24.5019 120.448 25.1815C120.148 25.8612 119.718 26.4109 119.159 26.8306C118.599 27.2504 117.919 27.5502 117.12 27.7301C116.32 27.91 115.431 28 114.451 28H96.1313C95.4716 28 95.1418 27.6702 95.1418 27.0105V25.1515C95.1418 24.5119 95.4716 24.1921 96.1313 24.1921H113.882C114.801 24.1921 115.471 24.0222 115.891 23.6823C116.33 23.3225 116.55 22.7528 116.55 21.9733V21.5835C116.55 20.8039 116.33 20.2442 115.891 19.9044C115.471 19.5446 114.801 19.3647 113.882 19.3647H101.228C100.229 19.3647 99.3295 19.2747 98.53 19.0948C97.7504 18.9149 97.0807 18.6151 96.521 18.1953C95.9613 17.7755 95.5316 17.2358 95.2317 16.5762C94.9319 15.8966 94.782 15.067 94.782 14.0875V12.3185C94.782 11.339 94.9319 10.5095 95.2317 9.82984C95.5316 9.15021 95.9613 8.6005 96.521 8.18073C97.0807 7.76096 97.7504 7.46112 98.53 7.28122C99.3295 7.10131 100.229 7.01136 101.228 7.01136H119.279C119.938 7.01136 120.268 7.34118 120.268 8.00083V9.85982C120.268 10.4995 119.938 10.8193 119.279 10.8193H101.798ZM150.049 22.6929C150.049 23.6723 149.899 24.5019 149.6 25.1815C149.3 25.8612 148.87 26.4109 148.31 26.8306C147.771 27.2504 147.101 27.5502 146.301 27.7301C145.502 27.91 144.612 28 143.633 28H129.78C127.781 28 126.252 27.4703 125.193 26.4109C124.153 25.3314 123.634 23.8023 123.634 21.8233V13.188C123.634 11.2091 124.153 9.68991 125.193 8.63049C126.252 7.55107 127.781 7.01136 129.78 7.01136H148.13C148.77 7.01136 149.09 7.34118 149.09 8.00083V9.85982C149.09 10.4995 148.77 10.8193 148.13 10.8193H130.92C129.96 10.8193 129.221 11.0792 128.701 11.5989C128.201 12.0986 127.951 12.8282 127.951 13.7877V21.2237C127.951 22.1831 128.201 22.9227 128.701 23.4425C129.221 23.9422 129.96 24.1921 130.92 24.1921H143.063C143.963 24.1921 144.632 24.0222 145.072 23.6823C145.512 23.3225 145.732 22.7528 145.732 21.9733V19.3647H139.405C138.745 19.3647 138.416 19.0349 138.416 18.3752V16.6362C138.416 15.9765 138.745 15.6467 139.405 15.6467H149.09C149.73 15.6467 150.049 15.9765 150.049 16.6362V22.6929ZM159.032 28C157.033 28 155.504 27.4703 154.445 26.4109C153.405 25.3314 152.885 23.8023 152.885 21.8233V13.188C152.885 11.2091 153.405 9.68991 154.445 8.63049C155.504 7.55107 157.033 7.01136 159.032 7.01136H173.484C175.483 7.01136 177.012 7.55107 178.072 8.63049C179.131 9.68991 179.661 11.2091 179.661 13.188V21.8233C179.661 23.8023 179.131 25.3314 178.072 26.4109C177.012 27.4703 175.483 28 173.484 28H159.032ZM172.375 24.1921C173.334 24.1921 174.064 23.9422 174.564 23.4425C175.083 22.9227 175.343 22.1831 175.343 21.2237V13.7877C175.343 12.8282 175.083 12.0986 174.564 11.5989C174.064 11.0792 173.334 10.8193 172.375 10.8193H160.171C159.212 10.8193 158.472 11.0792 157.953 11.5989C157.453 12.0986 157.203 12.8282 157.203 13.7877V21.2237C157.203 22.1831 157.453 22.9227 157.953 23.4425C158.472 23.9422 159.212 24.1921 160.171 24.1921H172.375ZM182.96 13.188C182.96 11.2091 183.489 9.68991 184.549 8.63049C185.608 7.55107 187.138 7.01136 189.136 7.01136H202.869C204.868 7.01136 206.397 7.55107 207.457 8.63049C208.516 9.68991 209.046 11.2091 209.046 13.188V27.0105C209.046 27.6702 208.716 28 208.056 28H205.687C205.028 28 204.698 27.6702 204.698 27.0105V13.7877C204.698 12.8282 204.438 12.0986 203.918 11.5989C203.419 11.0792 202.689 10.8193 201.73 10.8193H190.246C189.286 10.8193 188.547 11.0792 188.027 11.5989C187.527 12.0986 187.277 12.8282 187.277 13.7877V27.0105C187.277 27.6702 186.958 28 186.318 28H183.949C183.29 28 182.96 27.6702 182.96 27.0105V13.188Z" fill="#40005B"/>
<circle cx="215.698" cy="25.2024" r="3.30237" fill="#D9D9D9"/>
<circle cx="215.698" cy="25.2024" r="3.30237" fill="url(#paint1_linear_287_730)"/>
<path d="M2.99581 43.197C2.1946 43.197 1.58789 42.9938 1.17568 42.5874C0.769272 42.181 0.566068 41.6149 0.566068 40.8892V36.9789H1.24535V40.9414C1.24535 41.493 1.3992 41.9052 1.70691 42.1781C2.01462 42.4509 2.44425 42.5874 2.99581 42.5874C3.54736 42.5874 3.97699 42.4509 4.2847 42.1781C4.59241 41.9052 4.74626 41.493 4.74626 40.9414V36.9789H5.42555V40.8892C5.42555 41.6149 5.21944 42.181 4.80723 42.5874C4.40082 42.9938 3.79701 43.197 2.99581 43.197ZM6.86664 38.8862H7.51979V39.5132C7.723 39.2519 7.96975 39.0603 8.26004 38.9384C8.55613 38.8165 8.86965 38.7555 9.20058 38.7555C9.75213 38.7555 10.1614 38.9007 10.4285 39.191C10.7014 39.4813 10.8378 39.8702 10.8378 40.3579V43.0664H10.1673V40.4189C10.1673 40.0589 10.0802 39.7832 9.90599 39.5916C9.73181 39.3942 9.45313 39.2955 9.06995 39.2955C8.4255 39.2955 7.91459 39.5858 7.53721 40.1663V43.0664H6.86664V38.8862ZM12.2732 36.6306H12.9438V43.0664H12.2732V36.6306ZM16.6693 43.197C15.9088 43.197 15.3137 43.0025 14.8841 42.6135C14.4602 42.2245 14.2483 41.6817 14.2483 40.985C14.2483 40.2999 14.4399 39.757 14.8231 39.3564C15.2063 38.9558 15.752 38.7555 16.4603 38.7555C16.9364 38.7555 17.3399 38.8484 17.6709 39.0342C18.0018 39.2142 18.2514 39.4638 18.4198 39.7832C18.5882 40.1025 18.6724 40.4653 18.6724 40.8718V41.2375H14.8753C14.8986 41.7136 15.0727 42.0707 15.3979 42.3087C15.7288 42.5467 16.1759 42.6658 16.739 42.6658C17.0119 42.6658 17.279 42.6425 17.5402 42.5961C17.8073 42.5438 18.0453 42.4742 18.2543 42.3871V42.9531C18.0802 43.0228 17.8421 43.0809 17.5402 43.1273C17.2441 43.1738 16.9538 43.197 16.6693 43.197ZM18.0453 40.7585C18.0337 40.3057 17.8944 39.9486 17.6273 39.6874C17.3602 39.4261 16.9683 39.2955 16.4516 39.2955C15.9465 39.2955 15.5604 39.4319 15.2934 39.7048C15.0263 39.9718 14.887 40.3231 14.8753 40.7585H18.0453ZM21.4452 43.197C20.9401 43.197 20.5395 43.0722 20.2434 42.8225C19.9531 42.5671 19.808 42.2187 19.808 41.7775C19.808 41.3188 19.9502 40.9675 20.2347 40.7237C20.5192 40.4741 20.9314 40.3492 21.4713 40.3492C22.0751 40.3492 22.5948 40.4741 23.0302 40.7237V40.4102C23.0302 40.0328 22.9228 39.7541 22.708 39.5741C22.4932 39.3884 22.1535 39.2955 21.689 39.2955C21.1956 39.2955 20.7398 39.3884 20.3218 39.5741V39.0081C20.496 38.9326 20.7166 38.8716 20.9836 38.8252C21.2507 38.7787 21.5062 38.7555 21.75 38.7555C22.4119 38.7555 22.9025 38.9065 23.2218 39.2084C23.5411 39.5045 23.7008 39.9167 23.7008 40.445V43.0664H23.0737V42.5264C22.708 42.9735 22.1651 43.197 21.4452 43.197ZM21.6107 42.6483C21.9242 42.6483 22.2058 42.5874 22.4554 42.4654C22.7109 42.3377 22.9025 42.1606 23.0302 41.9342V41.2636C22.8038 41.1301 22.5773 41.0343 22.3509 40.9763C22.1303 40.9124 21.8806 40.8805 21.602 40.8805C21.2072 40.8805 20.9198 40.9559 20.7398 41.1069C20.5656 41.252 20.4785 41.4756 20.4785 41.7775C20.4785 42.358 20.8559 42.6483 21.6107 42.6483ZM26.4604 43.197C26.1875 43.197 25.8943 43.1563 25.5808 43.0751C25.2673 42.9996 25.0234 42.9038 24.8492 42.7877V42.2216C25.0699 42.3551 25.3224 42.4625 25.6069 42.5438C25.8972 42.6251 26.1759 42.6658 26.4429 42.6658C26.8029 42.6658 27.0613 42.6164 27.218 42.5177C27.3806 42.4132 27.4619 42.2593 27.4619 42.0561C27.4619 41.8994 27.427 41.7775 27.3574 41.6904C27.2877 41.5975 27.1716 41.5162 27.009 41.4465C26.8464 41.3769 26.5939 41.2956 26.2513 41.2027C25.9146 41.1098 25.6446 41.014 25.4414 40.9153C25.244 40.8108 25.0931 40.6802 24.9886 40.5234C24.8841 40.3666 24.8318 40.1663 24.8318 39.9225C24.8318 39.5451 24.9828 39.2577 25.2847 39.0603C25.5924 38.8571 25.9988 38.7555 26.5039 38.7555C26.7768 38.7555 27.0322 38.7817 27.2703 38.8339C27.5141 38.8804 27.7173 38.9471 27.8799 39.0342V39.6003C27.7115 39.5074 27.5083 39.4348 27.2703 39.3826C27.0322 39.3245 26.7855 39.2955 26.53 39.2955C26.1933 39.2955 25.9378 39.3448 25.7637 39.4435C25.5895 39.5422 25.5024 39.7019 25.5024 39.9225C25.5024 40.0734 25.5314 40.1896 25.5895 40.2708C25.6533 40.3521 25.7666 40.4276 25.9291 40.4973C26.0975 40.5611 26.3646 40.6424 26.7303 40.7411C27.2528 40.8863 27.6157 41.0575 27.8189 41.2549C28.0279 41.4465 28.1324 41.7136 28.1324 42.0561C28.1324 42.4103 27.9931 42.689 27.7144 42.8922C27.4415 43.0954 27.0235 43.197 26.4604 43.197ZM29.4345 36.6306H30.1051V39.4958C30.5057 39.0023 31.0602 38.7555 31.7685 38.7555C32.32 38.7555 32.7293 38.9007 32.9964 39.191C33.2693 39.4813 33.4057 39.8702 33.4057 40.3579V43.0664H32.7351V40.4189C32.7351 40.0589 32.648 39.7832 32.4739 39.5916C32.2997 39.3942 32.021 39.2955 31.6378 39.2955C30.9934 39.2955 30.4825 39.5858 30.1051 40.1663V43.0664H29.4345V36.6306ZM35.2591 37.9804C35.143 37.9804 35.0443 37.9398 34.963 37.8585C34.8817 37.7772 34.8411 37.6785 34.8411 37.5624C34.8411 37.4463 34.8817 37.3476 34.963 37.2663C35.0443 37.1851 35.143 37.1444 35.2591 37.1444C35.3752 37.1444 35.4739 37.1851 35.5552 37.2663C35.6423 37.3476 35.6858 37.4463 35.6858 37.5624C35.6858 37.6785 35.6423 37.7772 35.5552 37.8585C35.4739 37.9398 35.3752 37.9804 35.2591 37.9804ZM34.9282 38.8862H35.5987V43.0664H34.9282V38.8862ZM37.169 38.8862H37.8221V39.5132C38.0253 39.2519 38.2721 39.0603 38.5624 38.9384C38.8585 38.8165 39.172 38.7555 39.5029 38.7555C40.0545 38.7555 40.4638 38.9007 40.7308 39.191C41.0037 39.4813 41.1402 39.8702 41.1402 40.3579V43.0664H40.4696V40.4189C40.4696 40.0589 40.3825 39.7832 40.2083 39.5916C40.0341 39.3942 39.7555 39.2955 39.3723 39.2955C38.7278 39.2955 38.2169 39.5858 37.8395 40.1663V43.0664H37.169V38.8862ZM44.7353 45.0694C44.4566 45.0694 44.1837 45.0461 43.9167 44.9997C43.6496 44.9532 43.4232 44.8894 43.2374 44.8081V44.242C43.6786 44.4394 44.1779 44.5381 44.7353 44.5381C45.3043 44.5381 45.7223 44.4075 45.9894 44.1462C46.2622 43.8908 46.3987 43.5018 46.3987 42.9793V42.3609C46.0213 42.9183 45.4233 43.197 44.6047 43.197C44.1925 43.197 43.818 43.107 43.4812 42.927C43.1445 42.7412 42.8803 42.48 42.6887 42.1432C42.4972 41.8065 42.4014 41.4204 42.4014 40.985C42.4014 40.5437 42.4972 40.1547 42.6887 39.818C42.8803 39.4813 43.1416 39.22 43.4725 39.0342C43.8035 38.8484 44.175 38.7555 44.5873 38.7555C45.0169 38.7555 45.3739 38.8223 45.6584 38.9558C45.9429 39.0836 46.1955 39.2955 46.4161 39.5916V38.8862H47.0692V42.8922C47.0692 43.6005 46.8777 44.1404 46.4945 44.512C46.1113 44.8836 45.5249 45.0694 44.7353 45.0694ZM44.7266 42.6658C45.1388 42.6658 45.493 42.5612 45.7891 42.3522C46.0852 42.1432 46.2884 41.8558 46.3987 41.4901V40.4537C46.2826 40.088 46.0764 39.8035 45.7804 39.6003C45.4843 39.3971 45.133 39.2955 44.7266 39.2955C44.4189 39.2955 44.1373 39.368 43.8818 39.5132C43.6322 39.6525 43.4348 39.8499 43.2897 40.1054C43.1445 40.3608 43.0719 40.654 43.0719 40.985C43.0719 41.3217 43.1445 41.6178 43.2897 41.8733C43.4348 42.1229 43.6322 42.3174 43.8818 42.4567C44.1373 42.5961 44.4189 42.6658 44.7266 42.6658ZM52.1302 36.9789H52.8095V43.0664H52.1302V36.9789ZM54.2963 38.8862H54.9494V39.5132C55.1526 39.2519 55.3994 39.0603 55.6897 38.9384C55.9858 38.8165 56.2993 38.7555 56.6302 38.7555C57.1818 38.7555 57.5911 38.9007 57.8582 39.191C58.131 39.4813 58.2675 39.8702 58.2675 40.3579V43.0664H57.5969V40.4189C57.5969 40.0589 57.5098 39.7832 57.3356 39.5916C57.1615 39.3942 56.8828 39.2955 56.4996 39.2955C55.8551 39.2955 55.3442 39.5858 54.9668 40.1663V43.0664H54.2963V38.8862ZM59.7028 38.8862H60.356V39.5132C60.5592 39.2519 60.8059 39.0603 61.0962 38.9384C61.3923 38.8165 61.7058 38.7555 62.0368 38.7555C62.5883 38.7555 62.9976 38.9007 63.2647 39.191C63.5376 39.4813 63.674 39.8702 63.674 40.3579V43.0664H63.0035V40.4189C63.0035 40.0589 62.9164 39.7832 62.7422 39.5916C62.568 39.3942 62.2893 39.2955 61.9062 39.2955C61.2617 39.2955 60.7508 39.5858 60.3734 40.1663V43.0664H59.7028V38.8862ZM67.1242 43.197C66.6713 43.197 66.2678 43.107 65.9137 42.927C65.5653 42.747 65.2924 42.4916 65.095 42.1606C64.9035 41.8239 64.8077 41.432 64.8077 40.985C64.8077 40.5437 64.9064 40.1547 65.1038 39.818C65.3012 39.4813 65.574 39.22 65.9224 39.0342C66.2765 38.8484 66.6771 38.7555 67.1242 38.7555C67.5712 38.7555 67.9689 38.8484 68.3173 39.0342C68.6714 39.22 68.9472 39.4813 69.1446 39.818C69.342 40.1547 69.4407 40.5437 69.4407 40.985C69.4407 41.432 69.342 41.8239 69.1446 42.1606C68.953 42.4916 68.6801 42.747 68.326 42.927C67.9776 43.107 67.577 43.197 67.1242 43.197ZM67.1242 42.6658C67.6235 42.6658 68.0212 42.5148 68.3173 42.2129C68.6192 41.9052 68.7701 41.4959 68.7701 40.985C68.7701 40.4682 68.6192 40.0589 68.3173 39.757C68.0212 39.4493 67.6235 39.2955 67.1242 39.2955C66.6249 39.2955 66.2243 39.4493 65.9224 39.757C65.6263 40.0589 65.4782 40.4682 65.4782 40.985C65.4782 41.4959 65.6263 41.9052 65.9224 42.2129C66.2243 42.5148 66.6249 42.6658 67.1242 42.6658ZM70.0016 38.8862H70.7157L72.0395 42.239L73.3632 38.8862H74.086L72.3878 43.0664H71.6911L70.0016 38.8862ZM76.4671 43.197C75.962 43.197 75.5614 43.0722 75.2653 42.8225C74.975 42.5671 74.8299 42.2187 74.8299 41.7775C74.8299 41.3188 74.9721 40.9675 75.2566 40.7237C75.5411 40.4741 75.9533 40.3492 76.4932 40.3492C77.097 40.3492 77.6167 40.4741 78.0521 40.7237V40.4102C78.0521 40.0328 77.9447 39.7541 77.7299 39.5741C77.515 39.3884 77.1754 39.2955 76.7109 39.2955C76.2174 39.2955 75.7617 39.3884 75.3437 39.5741V39.0081C75.5178 38.9326 75.7385 38.8716 76.0055 38.8252C76.2726 38.7787 76.5281 38.7555 76.7719 38.7555C77.4338 38.7555 77.9244 38.9065 78.2437 39.2084C78.563 39.5045 78.7227 39.9167 78.7227 40.445V43.0664H78.0956V42.5264C77.7299 42.9735 77.187 43.197 76.4671 43.197ZM76.6326 42.6483C76.9461 42.6483 77.2277 42.5874 77.4773 42.4654C77.7328 42.3377 77.9244 42.1606 78.0521 41.9342V41.2636C77.8257 41.1301 77.5992 41.0343 77.3728 40.9763C77.1522 40.9124 76.9025 40.8805 76.6239 40.8805C76.2291 40.8805 75.9417 40.9559 75.7617 41.1069C75.5875 41.252 75.5004 41.4756 75.5004 41.7775C75.5004 42.358 75.8778 42.6483 76.6326 42.6483ZM81.4845 43.197C81.0897 43.197 80.782 43.0809 80.5614 42.8486C80.3465 42.6164 80.2391 42.2855 80.2391 41.8558V39.4087H79.586V38.8862H80.2391V37.6321H80.9097V38.8862H81.9635V39.4087H80.9097V41.8733C80.9097 42.1635 80.9678 42.3697 81.0839 42.4916C81.2 42.6077 81.4119 42.6658 81.7196 42.6658C81.8706 42.6658 82.0302 42.6309 82.1986 42.5612V43.1099C82.007 43.168 81.769 43.197 81.4845 43.197ZM83.7943 37.9804C83.6782 37.9804 83.5795 37.9398 83.4982 37.8585C83.417 37.7772 83.3763 37.6785 83.3763 37.5624C83.3763 37.4463 83.417 37.3476 83.4982 37.2663C83.5795 37.1851 83.6782 37.1444 83.7943 37.1444C83.9105 37.1444 84.0092 37.1851 84.0904 37.2663C84.1775 37.3476 84.2211 37.4463 84.2211 37.5624C84.2211 37.6785 84.1775 37.7772 84.0904 37.8585C84.0092 37.9398 83.9105 37.9804 83.7943 37.9804ZM83.4634 38.8862H84.134V43.0664H83.4634V38.8862ZM87.8466 43.197C87.3937 43.197 86.9902 43.107 86.636 42.927C86.2877 42.747 86.0148 42.4916 85.8174 42.1606C85.6258 41.8239 85.53 41.432 85.53 40.985C85.53 40.5437 85.6287 40.1547 85.8261 39.818C86.0235 39.4813 86.2964 39.22 86.6448 39.0342C86.9989 38.8484 87.3995 38.7555 87.8466 38.7555C88.2936 38.7555 88.6913 38.8484 89.0397 39.0342C89.3938 39.22 89.6696 39.4813 89.867 39.818C90.0644 40.1547 90.1631 40.5437 90.1631 40.985C90.1631 41.432 90.0644 41.8239 89.867 42.1606C89.6754 42.4916 89.4025 42.747 89.0484 42.927C88.7 43.107 88.2994 43.197 87.8466 43.197ZM87.8466 42.6658C88.3459 42.6658 88.7436 42.5148 89.0397 42.2129C89.3416 41.9052 89.4925 41.4959 89.4925 40.985C89.4925 40.4682 89.3416 40.0589 89.0397 39.757C88.7436 39.4493 88.3459 39.2955 87.8466 39.2955C87.3473 39.2955 86.9467 39.4493 86.6448 39.757C86.3487 40.0589 86.2006 40.4682 86.2006 40.985C86.2006 41.4959 86.3487 41.9052 86.6448 42.2129C86.9467 42.5148 87.3473 42.6658 87.8466 42.6658ZM91.468 38.8862H92.1211V39.5132C92.3243 39.2519 92.5711 39.0603 92.8614 38.9384C93.1575 38.8165 93.471 38.7555 93.8019 38.7555C94.3535 38.7555 94.7628 38.9007 95.0298 39.191C95.3027 39.4813 95.4392 39.8702 95.4392 40.3579V43.0664H94.7686V40.4189C94.7686 40.0589 94.6815 39.7832 94.5073 39.5916C94.3331 39.3942 94.0545 39.2955 93.6713 39.2955C93.0268 39.2955 92.5159 39.5858 92.1385 40.1663V43.0664H91.468V38.8862ZM97.3971 42.6309H98.1025L97.31 44.3465H96.7004L97.3971 42.6309ZM104.578 37.5537H102.628V36.9789H107.209V37.5537H105.258V43.0664H104.578V37.5537ZM107.685 38.8862H108.338V39.7048C108.675 39.159 109.305 38.8862 110.228 38.8862V39.4261C109.218 39.4261 108.594 39.7599 108.356 40.4276V43.0664H107.685V38.8862ZM112.429 43.197C111.924 43.197 111.523 43.0722 111.227 42.8225C110.937 42.5671 110.792 42.2187 110.792 41.7775C110.792 41.3188 110.934 40.9675 111.218 40.7237C111.503 40.4741 111.915 40.3492 112.455 40.3492C113.059 40.3492 113.578 40.4741 114.014 40.7237V40.4102C114.014 40.0328 113.906 39.7541 113.692 39.5741C113.477 39.3884 113.137 39.2955 112.673 39.2955C112.179 39.2955 111.723 39.3884 111.305 39.5741V39.0081C111.479 38.9326 111.7 38.8716 111.967 38.8252C112.234 38.7787 112.49 38.7555 112.734 38.7555C113.395 38.7555 113.886 38.9065 114.205 39.2084C114.525 39.5045 114.684 39.9167 114.684 40.445V43.0664H114.057V42.5264C113.692 42.9735 113.149 43.197 112.429 43.197ZM112.594 42.6483C112.908 42.6483 113.189 42.5874 113.439 42.4654C113.694 42.3377 113.886 42.1606 114.014 41.9342V41.2636C113.787 41.1301 113.561 41.0343 113.334 40.9763C113.114 40.9124 112.864 40.8805 112.586 40.8805C112.191 40.8805 111.903 40.9559 111.723 41.1069C111.549 41.252 111.462 41.4756 111.462 41.7775C111.462 42.358 111.839 42.6483 112.594 42.6483ZM116.117 38.8862H116.77V39.5132C116.973 39.2519 117.22 39.0603 117.511 38.9384C117.807 38.8165 118.12 38.7555 118.451 38.7555C119.003 38.7555 119.412 38.9007 119.679 39.191C119.952 39.4813 120.088 39.8702 120.088 40.3579V43.0664H119.418V40.4189C119.418 40.0589 119.331 39.7832 119.156 39.5916C118.982 39.3942 118.704 39.2955 118.32 39.2955C117.676 39.2955 117.165 39.5858 116.788 40.1663V43.0664H116.117V38.8862ZM122.978 43.197C122.705 43.197 122.412 43.1563 122.098 43.0751C121.785 42.9996 121.541 42.9038 121.367 42.7877V42.2216C121.588 42.3551 121.84 42.4625 122.125 42.5438C122.415 42.6251 122.694 42.6658 122.961 42.6658C123.321 42.6658 123.579 42.6164 123.736 42.5177C123.898 42.4132 123.98 42.2593 123.98 42.0561C123.98 41.8994 123.945 41.7775 123.875 41.6904C123.805 41.5975 123.689 41.5162 123.527 41.4465C123.364 41.3769 123.112 41.2956 122.769 41.2027C122.432 41.1098 122.162 41.014 121.959 40.9153C121.762 40.8108 121.611 40.6802 121.506 40.5234C121.402 40.3666 121.349 40.1663 121.349 39.9225C121.349 39.5451 121.5 39.2577 121.802 39.0603C122.11 38.8571 122.516 38.7555 123.022 38.7555C123.294 38.7555 123.55 38.7817 123.788 38.8339C124.032 38.8804 124.235 38.9471 124.398 39.0342V39.6003C124.229 39.5074 124.026 39.4348 123.788 39.3826C123.55 39.3245 123.303 39.2955 123.048 39.2955C122.711 39.2955 122.456 39.3448 122.281 39.4435C122.107 39.5422 122.02 39.7019 122.02 39.9225C122.02 40.0734 122.049 40.1896 122.107 40.2708C122.171 40.3521 122.284 40.4276 122.447 40.4973C122.615 40.5611 122.882 40.6424 123.248 40.7411C123.771 40.8863 124.133 41.0575 124.337 41.2549C124.546 41.4465 124.65 41.7136 124.65 42.0561C124.65 42.4103 124.511 42.689 124.232 42.8922C123.959 43.0954 123.541 43.197 122.978 43.197ZM126.257 39.4087H125.604V38.8862H126.257V37.963C126.257 37.5102 126.379 37.1676 126.623 36.9354C126.872 36.7032 127.206 36.587 127.624 36.587C127.845 36.587 128.051 36.6161 128.243 36.6741V37.2402C128.08 37.1647 127.912 37.127 127.737 37.127C127.459 37.127 127.253 37.1996 127.119 37.3447C126.991 37.4841 126.928 37.7018 126.928 37.9979V38.8862H127.99V39.4087H126.928V43.0664H126.257V39.4087ZM131.035 43.197C130.582 43.197 130.178 43.107 129.824 42.927C129.476 42.747 129.203 42.4916 129.006 42.1606C128.814 41.8239 128.718 41.432 128.718 40.985C128.718 40.5437 128.817 40.1547 129.014 39.818C129.212 39.4813 129.485 39.22 129.833 39.0342C130.187 38.8484 130.588 38.7555 131.035 38.7555C131.482 38.7555 131.88 38.8484 132.228 39.0342C132.582 39.22 132.858 39.4813 133.055 39.818C133.253 40.1547 133.351 40.5437 133.351 40.985C133.351 41.432 133.253 41.8239 133.055 42.1606C132.864 42.4916 132.591 42.747 132.237 42.927C131.888 43.107 131.488 43.197 131.035 43.197ZM131.035 42.6658C131.534 42.6658 131.932 42.5148 132.228 42.2129C132.53 41.9052 132.681 41.4959 132.681 40.985C132.681 40.4682 132.53 40.0589 132.228 39.757C131.932 39.4493 131.534 39.2955 131.035 39.2955C130.535 39.2955 130.135 39.4493 129.833 39.757C129.537 40.0589 129.389 40.4682 129.389 40.985C129.389 41.4959 129.537 41.9052 129.833 42.2129C130.135 42.5148 130.535 42.6658 131.035 42.6658ZM134.656 38.8862H135.309V39.7048C135.646 39.159 136.276 38.8862 137.199 38.8862V39.4261C136.189 39.4261 135.565 39.7599 135.327 40.4276V43.0664H134.656V38.8862ZM138.328 38.8862H138.972V39.5393C139.373 39.0168 139.869 38.7555 140.461 38.7555C140.81 38.7555 141.08 38.8165 141.271 38.9384C141.469 39.0603 141.611 39.2432 141.698 39.4871C141.884 39.2374 142.113 39.0545 142.386 38.9384C142.665 38.8165 142.949 38.7555 143.24 38.7555C143.739 38.7555 144.102 38.8833 144.328 39.1387C144.555 39.3942 144.668 39.7715 144.668 40.2708V43.0664H144.006V40.3492C144.006 39.9602 143.936 39.6874 143.797 39.5306C143.663 39.3738 143.422 39.2955 143.074 39.2955C142.575 39.2955 142.163 39.519 141.837 39.966C141.855 40.0473 141.864 40.1809 141.864 40.3666V43.0664H141.21V40.3666C141.21 39.9777 141.147 39.7019 141.019 39.5393C140.891 39.3767 140.653 39.2955 140.305 39.2955C139.805 39.2955 139.367 39.5741 138.99 40.1315V43.0664H138.328V38.8862ZM146.525 37.9804C146.409 37.9804 146.31 37.9398 146.229 37.8585C146.148 37.7772 146.107 37.6785 146.107 37.5624C146.107 37.4463 146.148 37.3476 146.229 37.2663C146.31 37.1851 146.409 37.1444 146.525 37.1444C146.641 37.1444 146.74 37.1851 146.821 37.2663C146.908 37.3476 146.952 37.4463 146.952 37.5624C146.952 37.6785 146.908 37.7772 146.821 37.8585C146.74 37.9398 146.641 37.9804 146.525 37.9804ZM146.194 38.8862H146.865V43.0664H146.194V38.8862ZM148.435 38.8862H149.088V39.5132C149.291 39.2519 149.538 39.0603 149.828 38.9384C150.125 38.8165 150.438 38.7555 150.769 38.7555C151.321 38.7555 151.73 38.9007 151.997 39.191C152.27 39.4813 152.406 39.8702 152.406 40.3579V43.0664H151.736V40.4189C151.736 40.0589 151.649 39.7832 151.474 39.5916C151.3 39.3942 151.022 39.2955 150.638 39.2955C149.994 39.2955 149.483 39.5858 149.106 40.1663V43.0664H148.435V38.8862ZM156.001 45.0694C155.723 45.0694 155.45 45.0461 155.183 44.9997C154.916 44.9532 154.689 44.8894 154.503 44.8081V44.242C154.945 44.4394 155.444 44.5381 156.001 44.5381C156.57 44.5381 156.988 44.4075 157.255 44.1462C157.528 43.8908 157.665 43.5018 157.665 42.9793V42.3609C157.287 42.9183 156.689 43.197 155.871 43.197C155.459 43.197 155.084 43.107 154.747 42.927C154.411 42.7412 154.146 42.48 153.955 42.1432C153.763 41.8065 153.667 41.4204 153.667 40.985C153.667 40.5437 153.763 40.1547 153.955 39.818C154.146 39.4813 154.408 39.22 154.739 39.0342C155.07 38.8484 155.441 38.7555 155.853 38.7555C156.283 38.7555 156.64 38.8223 156.924 38.9558C157.209 39.0836 157.462 39.2955 157.682 39.5916V38.8862H158.335V42.8922C158.335 43.6005 158.144 44.1404 157.761 44.512C157.377 44.8836 156.791 45.0694 156.001 45.0694ZM155.993 42.6658C156.405 42.6658 156.759 42.5612 157.055 42.3522C157.351 42.1432 157.554 41.8558 157.665 41.4901V40.4537C157.549 40.088 157.343 39.8035 157.046 39.6003C156.75 39.3971 156.399 39.2955 155.993 39.2955C155.685 39.2955 155.403 39.368 155.148 39.5132C154.898 39.6525 154.701 39.8499 154.556 40.1054C154.411 40.3608 154.338 40.654 154.338 40.985C154.338 41.3217 154.411 41.6178 154.556 41.8733C154.701 42.1229 154.898 42.3174 155.148 42.4567C155.403 42.5961 155.685 42.6658 155.993 42.6658ZM163.388 36.9789H166.087C166.616 36.9789 167.019 37.1183 167.298 37.397C167.576 37.6698 167.716 38.0733 167.716 38.6075C167.716 38.921 167.643 39.1939 167.498 39.4261C167.353 39.6525 167.161 39.8209 166.923 39.9312C167.591 40.1054 167.925 40.5844 167.925 41.3681C167.925 41.7107 167.849 42.0126 167.698 42.2739C167.553 42.5293 167.35 42.7267 167.089 42.8661C166.833 42.9996 166.549 43.0664 166.235 43.0664H163.388V36.9789ZM166.035 39.6612C166.36 39.6612 166.607 39.5741 166.775 39.4C166.949 39.22 167.036 38.9616 167.036 38.6249C167.036 38.2417 166.952 37.9688 166.784 37.8063C166.616 37.6379 166.343 37.5537 165.965 37.5537H164.067V39.6612H166.035ZM166.087 42.4916C166.47 42.4916 166.758 42.4045 166.949 42.2303C167.147 42.0561 167.246 41.7629 167.246 41.3507C167.246 40.9501 167.144 40.6656 166.941 40.4973C166.737 40.3231 166.421 40.236 165.991 40.236H164.067V42.4916H166.087ZM170.917 43.197C170.36 43.197 169.93 43.046 169.628 42.7441C169.332 42.4422 169.184 42.0387 169.184 41.5336V38.8862H169.855V41.5684C169.855 42.3 170.235 42.6658 170.996 42.6658C171.315 42.6658 171.594 42.5961 171.832 42.4567C172.076 42.3174 172.293 42.0968 172.485 41.7949V38.8862H173.155V43.0664H172.502V42.4393C172.125 42.9444 171.597 43.197 170.917 43.197ZM176.089 43.197C175.816 43.197 175.523 43.1563 175.209 43.0751C174.896 42.9996 174.652 42.9038 174.478 42.7877V42.2216C174.698 42.3551 174.951 42.4625 175.235 42.5438C175.526 42.6251 175.804 42.6658 176.071 42.6658C176.431 42.6658 176.69 42.6164 176.846 42.5177C177.009 42.4132 177.09 42.2593 177.09 42.0561C177.09 41.8994 177.055 41.7775 176.986 41.6904C176.916 41.5975 176.8 41.5162 176.637 41.4465C176.475 41.3769 176.222 41.2956 175.88 41.2027C175.543 41.1098 175.273 41.014 175.07 40.9153C174.872 40.8108 174.721 40.6802 174.617 40.5234C174.512 40.3666 174.46 40.1663 174.46 39.9225C174.46 39.5451 174.611 39.2577 174.913 39.0603C175.221 38.8571 175.627 38.7555 176.132 38.7555C176.405 38.7555 176.661 38.7817 176.899 38.8339C177.143 38.8804 177.346 38.9471 177.508 39.0342V39.6003C177.34 39.5074 177.137 39.4348 176.899 39.3826C176.661 39.3245 176.414 39.2955 176.158 39.2955C175.822 39.2955 175.566 39.3448 175.392 39.4435C175.218 39.5422 175.131 39.7019 175.131 39.9225C175.131 40.0734 175.16 40.1896 175.218 40.2708C175.282 40.3521 175.395 40.4276 175.558 40.4973C175.726 40.5611 175.993 40.6424 176.359 40.7411C176.881 40.8863 177.244 41.0575 177.447 41.2549C177.656 41.4465 177.761 41.7136 177.761 42.0561C177.761 42.4103 177.621 42.689 177.343 42.8922C177.07 43.0954 176.652 43.197 176.089 43.197ZM179.481 37.9804C179.365 37.9804 179.266 37.9398 179.185 37.8585C179.104 37.7772 179.063 37.6785 179.063 37.5624C179.063 37.4463 179.104 37.3476 179.185 37.2663C179.266 37.1851 179.365 37.1444 179.481 37.1444C179.597 37.1444 179.696 37.1851 179.777 37.2663C179.864 37.3476 179.908 37.4463 179.908 37.5624C179.908 37.6785 179.864 37.7772 179.777 37.8585C179.696 37.9398 179.597 37.9804 179.481 37.9804ZM179.15 38.8862H179.821V43.0664H179.15V38.8862ZM181.391 38.8862H182.044V39.5132C182.247 39.2519 182.494 39.0603 182.784 38.9384C183.08 38.8165 183.394 38.7555 183.725 38.7555C184.276 38.7555 184.686 38.9007 184.953 39.191C185.226 39.4813 185.362 39.8702 185.362 40.3579V43.0664H184.691V40.4189C184.691 40.0589 184.604 39.7832 184.43 39.5916C184.256 39.3942 183.977 39.2955 183.594 39.2955C182.95 39.2955 182.439 39.5858 182.061 40.1663V43.0664H181.391V38.8862ZM189.044 43.197C188.284 43.197 187.689 43.0025 187.259 42.6135C186.835 42.2245 186.623 41.6817 186.623 40.985C186.623 40.2999 186.815 39.757 187.198 39.3564C187.581 38.9558 188.127 38.7555 188.835 38.7555C189.311 38.7555 189.715 38.8484 190.046 39.0342C190.377 39.2142 190.626 39.4638 190.795 39.7832C190.963 40.1025 191.047 40.4653 191.047 40.8718V41.2375H187.25C187.273 41.7136 187.448 42.0707 187.773 42.3087C188.104 42.5467 188.551 42.6658 189.114 42.6658C189.387 42.6658 189.654 42.6425 189.915 42.5961C190.182 42.5438 190.42 42.4742 190.629 42.3871V42.9531C190.455 43.0228 190.217 43.0809 189.915 43.1273C189.619 43.1738 189.329 43.197 189.044 43.197ZM190.42 40.7585C190.409 40.3057 190.269 39.9486 190.002 39.6874C189.735 39.4261 189.343 39.2955 188.827 39.2955C188.321 39.2955 187.935 39.4319 187.668 39.7048C187.401 39.9718 187.262 40.3231 187.25 40.7585H190.42ZM193.811 43.197C193.539 43.197 193.245 43.1563 192.932 43.0751C192.618 42.9996 192.374 42.9038 192.2 42.7877V42.2216C192.421 42.3551 192.673 42.4625 192.958 42.5438C193.248 42.6251 193.527 42.6658 193.794 42.6658C194.154 42.6658 194.412 42.6164 194.569 42.5177C194.732 42.4132 194.813 42.2593 194.813 42.0561C194.813 41.8994 194.778 41.7775 194.708 41.6904C194.639 41.5975 194.523 41.5162 194.36 41.4465C194.197 41.3769 193.945 41.2956 193.602 41.2027C193.266 41.1098 192.996 41.014 192.792 40.9153C192.595 40.8108 192.444 40.6802 192.34 40.5234C192.235 40.3666 192.183 40.1663 192.183 39.9225C192.183 39.5451 192.334 39.2577 192.636 39.0603C192.943 38.8571 193.35 38.7555 193.855 38.7555C194.128 38.7555 194.383 38.7817 194.621 38.8339C194.865 38.8804 195.068 38.9471 195.231 39.0342V39.6003C195.063 39.5074 194.859 39.4348 194.621 39.3826C194.383 39.3245 194.137 39.2955 193.881 39.2955C193.544 39.2955 193.289 39.3448 193.115 39.4435C192.941 39.5422 192.853 39.7019 192.853 39.9225C192.853 40.0734 192.882 40.1896 192.941 40.2708C193.004 40.3521 193.118 40.4276 193.28 40.4973C193.449 40.5611 193.716 40.6424 194.081 40.7411C194.604 40.8863 194.967 41.0575 195.17 41.2549C195.379 41.4465 195.483 41.7136 195.483 42.0561C195.483 42.4103 195.344 42.689 195.065 42.8922C194.793 43.0954 194.375 43.197 193.811 43.197ZM198.019 43.197C197.746 43.197 197.453 43.1563 197.139 43.0751C196.826 42.9996 196.582 42.9038 196.408 42.7877V42.2216C196.628 42.3551 196.881 42.4625 197.165 42.5438C197.456 42.6251 197.734 42.6658 198.001 42.6658C198.361 42.6658 198.62 42.6164 198.776 42.5177C198.939 42.4132 199.02 42.2593 199.02 42.0561C199.02 41.8994 198.985 41.7775 198.916 41.6904C198.846 41.5975 198.73 41.5162 198.567 41.4465C198.405 41.3769 198.152 41.2956 197.81 41.2027C197.473 41.1098 197.203 41.014 197 40.9153C196.802 40.8108 196.652 40.6802 196.547 40.5234C196.443 40.3666 196.39 40.1663 196.39 39.9225C196.39 39.5451 196.541 39.2577 196.843 39.0603C197.151 38.8571 197.557 38.7555 198.062 38.7555C198.335 38.7555 198.591 38.7817 198.829 38.8339C199.073 38.8804 199.276 38.9471 199.438 39.0342V39.6003C199.27 39.5074 199.067 39.4348 198.829 39.3826C198.591 39.3245 198.344 39.2955 198.088 39.2955C197.752 39.2955 197.496 39.3448 197.322 39.4435C197.148 39.5422 197.061 39.7019 197.061 39.9225C197.061 40.0734 197.09 40.1896 197.148 40.2708C197.212 40.3521 197.325 40.4276 197.488 40.4973C197.656 40.5611 197.923 40.6424 198.289 40.7411C198.811 40.8863 199.174 41.0575 199.377 41.2549C199.586 41.4465 199.691 41.7136 199.691 42.0561C199.691 42.4103 199.552 42.689 199.273 42.8922C199 43.0954 198.582 43.197 198.019 43.197ZM203.24 43.197C202.479 43.197 201.884 43.0025 201.455 42.6135C201.031 42.2245 200.819 41.6817 200.819 40.985C200.819 40.2999 201.01 39.757 201.394 39.3564C201.777 38.9558 202.322 38.7555 203.031 38.7555C203.507 38.7555 203.91 38.8484 204.241 39.0342C204.572 39.2142 204.822 39.4638 204.99 39.7832C205.159 40.1025 205.243 40.4653 205.243 40.8718V41.2375H201.446C201.469 41.7136 201.643 42.0707 201.968 42.3087C202.299 42.5467 202.746 42.6658 203.309 42.6658C203.582 42.6658 203.849 42.6425 204.111 42.5961C204.378 42.5438 204.616 42.4742 204.825 42.3871V42.9531C204.651 43.0228 204.413 43.0809 204.111 43.1273C203.815 43.1738 203.524 43.197 203.24 43.197ZM204.616 40.7585C204.604 40.3057 204.465 39.9486 204.198 39.6874C203.931 39.4261 203.539 39.2955 203.022 39.2955C202.517 39.2955 202.131 39.4319 201.864 39.7048C201.597 39.9718 201.457 40.3231 201.446 40.7585H204.616ZM208.007 43.197C207.734 43.197 207.441 43.1563 207.127 43.0751C206.814 42.9996 206.57 42.9038 206.396 42.7877V42.2216C206.616 42.3551 206.869 42.4625 207.154 42.5438C207.444 42.6251 207.722 42.6658 207.99 42.6658C208.35 42.6658 208.608 42.6164 208.765 42.5177C208.927 42.4132 209.008 42.2593 209.008 42.0561C209.008 41.8994 208.974 41.7775 208.904 41.6904C208.834 41.5975 208.718 41.5162 208.556 41.4465C208.393 41.3769 208.14 41.2956 207.798 41.2027C207.461 41.1098 207.191 41.014 206.988 40.9153C206.791 40.8108 206.64 40.6802 206.535 40.5234C206.431 40.3666 206.378 40.1663 206.378 39.9225C206.378 39.5451 206.529 39.2577 206.831 39.0603C207.139 38.8571 207.545 38.7555 208.051 38.7555C208.323 38.7555 208.579 38.7817 208.817 38.8339C209.061 38.8804 209.264 38.9471 209.426 39.0342V39.6003C209.258 39.5074 209.055 39.4348 208.817 39.3826C208.579 39.3245 208.332 39.2955 208.077 39.2955C207.74 39.2955 207.484 39.3448 207.31 39.4435C207.136 39.5422 207.049 39.7019 207.049 39.9225C207.049 40.0734 207.078 40.1896 207.136 40.2708C207.2 40.3521 207.313 40.4276 207.476 40.4973C207.644 40.5611 207.911 40.6424 208.277 40.7411C208.799 40.8863 209.162 41.0575 209.366 41.2549C209.575 41.4465 209.679 41.7136 209.679 42.0561C209.679 42.4103 209.54 42.689 209.261 42.8922C208.988 43.0954 208.57 43.197 208.007 43.197Z" fill="#40005B"/>
<defs>
<linearGradient id="paint0_linear_287_730" x1="-1.63481e-07" y1="7.29975" x2="9.90711" y2="17.5545" gradientUnits="userSpaceOnUse">
<stop offset="0.218568" stop-color="#A71A7F"/>
<stop offset="0.766282" stop-color="#40005B"/>
</linearGradient>
<linearGradient id="paint1_linear_287_730" x1="212.395" y1="21.9572" x2="217.945" y2="27.0057" gradientUnits="userSpaceOnUse">
<stop stop-color="#40005B"/>
<stop offset="0.882296" stop-color="#A71A7F"/>
</linearGradient>
</defs>
</svg>
