<svg width="397" height="314" viewBox="0 0 397 314" fill="none" xmlns="http://www.w3.org/2000/svg">
<rect width="397" height="313.18" fill="url(#paint0_linear_259_277)"/>
<path d="M45.657 227.18H40.7138L48.2457 205.362H54.1903L61.7116 227.18H56.7685L51.3033 210.348H51.1328L45.657 227.18ZM45.348 218.604H57.0241V222.205H45.348V218.604ZM64.3377 227.18V205.362H72.9457C74.6005 205.362 76.0103 205.678 77.1751 206.31C78.3398 206.935 79.2276 207.805 79.8384 208.92C80.4563 210.028 80.7653 211.306 80.7653 212.755C80.7653 214.204 80.4528 215.482 79.8278 216.59C79.2028 217.698 78.2972 218.561 77.1112 219.179C75.9322 219.797 74.5046 220.106 72.8285 220.106H67.342V216.409H72.0827C72.9705 216.409 73.7021 216.257 74.2773 215.951C74.8597 215.639 75.293 215.209 75.5771 214.662C75.8683 214.108 76.0138 213.473 76.0138 212.755C76.0138 212.031 75.8683 211.399 75.5771 210.859C75.293 210.312 74.8597 209.889 74.2773 209.591C73.695 209.286 72.9563 209.133 72.0614 209.133H68.9506V227.18H64.3377ZM83.7615 227.18V205.362H92.3695C94.0243 205.362 95.4341 205.678 96.5989 206.31C97.7637 206.935 98.6515 207.805 99.2623 208.92C99.8801 210.028 100.189 211.306 100.189 212.755C100.189 214.204 99.8766 215.482 99.2516 216.59C98.6266 217.698 97.7211 218.561 96.535 219.179C95.356 219.797 93.9284 220.106 92.2523 220.106H86.7658V216.409H91.5066C92.3944 216.409 93.1259 216.257 93.7012 215.951C94.2836 215.639 94.7168 215.209 95.0009 214.662C95.2921 214.108 95.4377 213.473 95.4377 212.755C95.4377 212.031 95.2921 211.399 95.0009 210.859C94.7168 210.312 94.2836 209.889 93.7012 209.591C93.1188 209.286 92.3801 209.133 91.4853 209.133H88.3745V227.18H83.7615ZM49.6307 265.18H41.8963V243.362H49.6946C51.8892 243.362 53.7784 243.799 55.3622 244.672C56.946 245.539 58.1641 246.785 59.0163 248.411C59.8757 250.038 60.3054 251.984 60.3054 254.25C60.3054 256.522 59.8757 258.475 59.0163 260.109C58.1641 261.742 56.9389 262.996 55.3409 263.87C53.75 264.743 51.8466 265.18 49.6307 265.18ZM46.5092 261.228H49.4389C50.8026 261.228 51.9496 260.986 52.88 260.503C53.8175 260.013 54.5206 259.257 54.9893 258.234C55.4652 257.204 55.7031 255.876 55.7031 254.25C55.7031 252.637 55.4652 251.32 54.9893 250.297C54.5206 249.274 53.821 248.522 52.8906 248.039C51.9602 247.556 50.8132 247.314 49.4496 247.314H46.5092V261.228ZM63.7225 265.18V243.362H78.4242V247.165H68.3354V252.364H77.6678V256.167H68.3354V261.377H78.4668V265.18H63.7225ZM86.0334 243.362L91.3068 259.938H91.5092L96.7933 243.362H101.907L94.3857 265.18H88.4411L80.9091 243.362H86.0334ZM104.533 265.18V243.362H119.235V247.165H109.146V252.364H118.478V256.167H109.146V261.377H119.277V265.18H104.533ZM122.902 265.18V243.362H127.515V261.377H136.869V265.18H122.902ZM159.124 254.271C159.124 256.65 158.673 258.674 157.771 260.343C156.876 262.012 155.654 263.287 154.106 264.168C152.565 265.041 150.832 265.478 148.907 265.478C146.968 265.478 145.228 265.038 143.687 264.157C142.146 263.277 140.928 262.002 140.033 260.333C139.138 258.664 138.691 256.643 138.691 254.271C138.691 251.892 139.138 249.867 140.033 248.198C140.928 246.529 142.146 245.258 143.687 244.384C145.228 243.504 146.968 243.063 148.907 243.063C150.832 243.063 152.565 243.504 154.106 244.384C155.654 245.258 156.876 246.529 157.771 248.198C158.673 249.867 159.124 251.892 159.124 254.271ZM154.447 254.271C154.447 252.73 154.216 251.43 153.754 250.372C153.3 249.313 152.657 248.511 151.826 247.964C150.995 247.417 150.022 247.144 148.907 247.144C147.792 247.144 146.819 247.417 145.988 247.964C145.157 248.511 144.511 249.313 144.049 250.372C143.595 251.43 143.367 252.73 143.367 254.271C143.367 255.812 143.595 257.112 144.049 258.17C144.511 259.228 145.157 260.031 145.988 260.578C146.819 261.125 147.792 261.398 148.907 261.398C150.022 261.398 150.995 261.125 151.826 260.578C152.657 260.031 153.3 259.228 153.754 258.17C154.216 257.112 154.447 255.812 154.447 254.271ZM162.541 265.18V243.362H171.149C172.804 243.362 174.213 243.678 175.378 244.31C176.543 244.935 177.431 245.805 178.042 246.92C178.659 248.028 178.968 249.306 178.968 250.755C178.968 252.204 178.656 253.482 178.031 254.59C177.406 255.698 176.5 256.561 175.314 257.179C174.135 257.797 172.708 258.106 171.032 258.106H165.545V254.409H170.286C171.174 254.409 171.905 254.257 172.48 253.951C173.063 253.639 173.496 253.209 173.78 252.662C174.071 252.108 174.217 251.473 174.217 250.755C174.217 250.031 174.071 249.399 173.78 248.859C173.496 248.312 173.063 247.889 172.48 247.591C171.898 247.286 171.159 247.133 170.265 247.133H167.154V265.18H162.541ZM181.965 243.362H187.654L193.662 258.021H193.918L199.926 243.362H205.615V265.18H201.141V250.979H200.96L195.313 265.073H192.267L186.62 250.926H186.439V265.18H181.965V243.362ZM209.416 265.18V243.362H224.118V247.165H214.029V252.364H223.361V256.167H214.029V261.377H224.16V265.18H209.416ZM246.034 243.362V265.18H242.05L232.558 251.448H232.398V265.18H227.785V243.362H231.833L241.251 257.083H241.443V243.362H246.034ZM249.015 247.165V243.362H266.934V247.165H260.254V265.18H255.694V247.165H249.015Z" fill="white"/>
<defs>
<linearGradient id="paint0_linear_259_277" x1="198.5" y1="0" x2="198.5" y2="313.18" gradientUnits="userSpaceOnUse">
<stop stop-opacity="0"/>
<stop offset="1" stop-opacity="0.7"/>
</linearGradient>
</defs>
</svg>
