<svg width="132" height="314" viewBox="0 0 132 314" fill="none" xmlns="http://www.w3.org/2000/svg">
<rect width="397" height="313.18" fill="url(#paint0_linear_259_286)"/>
<path d="M49.6307 265.18H41.8963V243.362H49.6946C51.8892 243.362 53.7784 243.799 55.3622 244.672C56.946 245.539 58.1641 246.785 59.0163 248.411C59.8757 250.038 60.3054 251.984 60.3054 254.25C60.3054 256.522 59.8757 258.475 59.0163 260.109C58.1641 261.742 56.9389 262.996 55.3409 263.87C53.75 264.743 51.8466 265.18 49.6307 265.18ZM46.5092 261.228H49.4389C50.8026 261.228 51.9496 260.986 52.88 260.503C53.8175 260.013 54.5206 259.257 54.9893 258.234C55.4652 257.204 55.7031 255.876 55.7031 254.25C55.7031 252.637 55.4652 251.32 54.9893 250.297C54.5206 249.274 53.821 248.522 52.8906 248.039C51.9602 247.556 50.8132 247.314 49.4496 247.314H46.5092V261.228ZM66.2527 265.18H61.3095L68.8414 243.362H74.786L82.3074 265.18H77.3642L71.899 248.348H71.7285L66.2527 265.18ZM65.9437 256.604H77.6199V260.205H65.9437V256.604ZM81.4364 247.165V243.362H99.3555V247.165H92.6758V265.18H88.1161V247.165H81.4364ZM103.401 265.18H98.4579L105.99 243.362H111.934L119.456 265.18H114.513L109.047 248.348H108.877L103.401 265.18ZM103.092 256.604H114.768V260.205H103.092V256.604ZM135.63 265.5C134.125 265.5 132.825 265.23 131.731 264.69C130.637 264.15 129.796 263.419 129.206 262.495C128.624 261.565 128.333 260.528 128.333 259.384C128.333 258.532 128.503 257.776 128.844 257.115C129.185 256.455 129.661 255.848 130.272 255.294C130.882 254.732 131.593 254.175 132.402 253.621L136.632 250.84C137.179 250.492 137.58 250.127 137.836 249.743C138.091 249.353 138.219 248.93 138.219 248.475C138.219 248.042 138.045 247.641 137.697 247.272C137.349 246.902 136.855 246.721 136.216 246.728C135.79 246.728 135.421 246.824 135.108 247.016C134.796 247.201 134.551 247.446 134.373 247.751C134.203 248.049 134.118 248.383 134.118 248.752C134.118 249.207 134.245 249.669 134.501 250.137C134.757 250.606 135.098 251.103 135.524 251.629C135.95 252.147 136.415 252.708 136.919 253.312L147.264 265.18H142.534L133.904 255.571C133.336 254.924 132.768 254.25 132.2 253.546C131.639 252.836 131.17 252.083 130.794 251.288C130.417 250.485 130.229 249.615 130.229 248.678C130.229 247.62 130.474 246.668 130.964 245.823C131.461 244.978 132.157 244.31 133.052 243.82C133.947 243.323 134.991 243.074 136.184 243.074C137.349 243.074 138.354 243.312 139.199 243.788C140.051 244.257 140.705 244.882 141.159 245.663C141.621 246.437 141.852 247.289 141.852 248.22C141.852 249.25 141.596 250.183 141.085 251.022C140.581 251.853 139.87 252.598 138.954 253.259L134.501 256.465C133.897 256.906 133.45 257.357 133.159 257.818C132.875 258.273 132.733 258.71 132.733 259.129C132.733 259.647 132.86 260.112 133.116 260.524C133.372 260.936 133.734 261.263 134.203 261.505C134.672 261.739 135.222 261.856 135.854 261.856C136.621 261.856 137.377 261.682 138.123 261.334C138.876 260.979 139.558 260.478 140.169 259.832C140.787 259.179 141.28 258.404 141.65 257.509C142.019 256.615 142.203 255.624 142.203 254.537H145.964C145.964 255.872 145.819 257.076 145.527 258.149C145.236 259.214 144.831 260.144 144.313 260.94C143.794 261.728 143.201 262.375 142.534 262.879C142.321 263.014 142.115 263.142 141.916 263.262C141.717 263.383 141.511 263.511 141.298 263.646C140.488 264.299 139.583 264.772 138.581 265.063C137.587 265.354 136.603 265.5 135.63 265.5ZM159.944 265.18H155.001L162.533 243.362H168.477L175.999 265.18H171.056L165.59 248.348H165.42L159.944 265.18ZM159.635 256.604H171.311V260.205H159.635V256.604ZM196.874 243.362V265.18H192.89L183.398 251.448H183.238V265.18H178.625V243.362H182.673L192.091 257.083H192.282V243.362H196.874ZM204.446 265.18H199.503L207.035 243.362H212.979L220.501 265.18H215.558L210.092 248.348H209.922L204.446 265.18ZM204.137 256.604H215.813V260.205H204.137V256.604ZM223.127 265.18V243.362H227.74V261.377H237.093V265.18H223.127ZM236.087 243.362H241.254L246.229 252.758H246.442L251.417 243.362H256.584L248.626 257.467V265.18H244.045V257.467L236.087 243.362ZM259.649 247.165V243.362H277.568V247.165H270.889V265.18H266.329V247.165H259.649ZM285.132 243.362V265.18H280.519V243.362H285.132ZM308.178 251H303.512C303.427 250.397 303.253 249.86 302.99 249.392C302.727 248.916 302.39 248.511 301.978 248.177C301.566 247.843 301.09 247.588 300.55 247.41C300.018 247.232 299.439 247.144 298.814 247.144C297.685 247.144 296.701 247.424 295.863 247.985C295.025 248.539 294.375 249.349 293.913 250.414C293.452 251.473 293.221 252.758 293.221 254.271C293.221 255.826 293.452 257.133 293.913 258.191C294.382 259.25 295.036 260.049 295.874 260.588C296.712 261.128 297.681 261.398 298.782 261.398C299.4 261.398 299.972 261.316 300.497 261.153C301.03 260.99 301.502 260.752 301.914 260.439C302.326 260.12 302.667 259.732 302.937 259.278C303.214 258.823 303.406 258.305 303.512 257.723L308.178 257.744C308.058 258.745 307.756 259.711 307.273 260.642C306.797 261.565 306.154 262.392 305.344 263.124C304.542 263.848 303.583 264.424 302.468 264.85C301.36 265.269 300.107 265.478 298.707 265.478C296.761 265.478 295.021 265.038 293.487 264.157C291.96 263.277 290.753 262.002 289.865 260.333C288.984 258.664 288.544 256.643 288.544 254.271C288.544 251.892 288.991 249.867 289.886 248.198C290.781 246.529 291.996 245.258 293.53 244.384C295.064 243.504 296.79 243.063 298.707 243.063C299.972 243.063 301.143 243.241 302.223 243.596C303.31 243.951 304.272 244.47 305.11 245.152C305.948 245.826 306.63 246.654 307.156 247.634C307.688 248.614 308.029 249.736 308.178 251ZM323.322 249.637C323.237 248.777 322.871 248.11 322.225 247.634C321.578 247.158 320.701 246.92 319.593 246.92C318.841 246.92 318.205 247.027 317.686 247.24C317.168 247.446 316.77 247.733 316.493 248.103C316.223 248.472 316.088 248.891 316.088 249.36C316.074 249.75 316.156 250.091 316.333 250.382C316.518 250.674 316.77 250.926 317.09 251.139C317.409 251.345 317.779 251.526 318.198 251.682C318.617 251.831 319.064 251.959 319.54 252.066L321.5 252.534C322.452 252.747 323.326 253.031 324.121 253.387C324.917 253.742 325.605 254.179 326.188 254.697C326.77 255.215 327.221 255.826 327.541 256.529C327.868 257.232 328.034 258.039 328.042 258.948C328.034 260.283 327.694 261.441 327.019 262.421C326.351 263.394 325.385 264.15 324.121 264.69C322.864 265.223 321.348 265.489 319.572 265.489C317.811 265.489 316.277 265.219 314.97 264.679C313.67 264.139 312.654 263.34 311.923 262.282C311.199 261.217 310.819 259.899 310.783 258.33H315.247C315.297 259.061 315.506 259.672 315.875 260.162C316.252 260.645 316.752 261.011 317.377 261.259C318.01 261.501 318.723 261.622 319.519 261.622C320.3 261.622 320.978 261.508 321.554 261.281C322.136 261.054 322.587 260.737 322.907 260.333C323.226 259.928 323.386 259.463 323.386 258.937C323.386 258.447 323.24 258.035 322.949 257.701C322.665 257.367 322.246 257.083 321.692 256.849C321.145 256.615 320.474 256.402 319.679 256.21L317.303 255.613C315.463 255.166 314.011 254.466 312.946 253.514C311.88 252.563 311.351 251.281 311.358 249.669C311.351 248.348 311.703 247.193 312.413 246.206C313.13 245.219 314.114 244.448 315.364 243.894C316.614 243.34 318.034 243.063 319.625 243.063C321.245 243.063 322.658 243.34 323.865 243.894C325.08 244.448 326.025 245.219 326.699 246.206C327.374 247.193 327.722 248.337 327.743 249.637H323.322Z" fill="white"/>
<defs>
<linearGradient id="paint0_linear_259_286" x1="198.5" y1="0" x2="198.5" y2="313.18" gradientUnits="userSpaceOnUse">
<stop stop-opacity="0"/>
<stop offset="1" stop-opacity="0.7"/>
</linearGradient>
</defs>
</svg>
