<svg width="397" height="314" viewBox="0 0 397 314" fill="none" xmlns="http://www.w3.org/2000/svg">
<rect width="397" height="313.18" fill="url(#paint0_linear_259_141)"/>
<path d="M48.9415 221.046L42.6986 199.228H47.7377L51.3492 214.388H51.5303L55.5147 199.228H59.8293L63.803 214.42H63.9948L67.6063 199.228H72.6454L66.4025 221.046H61.9067L57.7519 206.781H57.5815L53.4373 221.046H48.9415ZM75.1143 221.046V199.228H89.816V203.031H79.7272V208.23H89.0596V212.033H79.7272V217.243H89.8586V221.046H75.1143ZM93.4834 221.046V199.228H102.219C103.824 199.228 105.163 199.466 106.236 199.942C107.308 200.417 108.114 201.078 108.654 201.923C109.194 202.761 109.464 203.727 109.464 204.821C109.464 205.673 109.293 206.422 108.952 207.069C108.611 207.708 108.143 208.234 107.546 208.645C106.956 209.05 106.282 209.338 105.522 209.508V209.721C106.353 209.757 107.13 209.991 107.855 210.425C108.586 210.858 109.179 211.465 109.634 212.246C110.089 213.02 110.316 213.944 110.316 215.016C110.316 216.174 110.028 217.207 109.453 218.116C108.885 219.018 108.043 219.732 106.928 220.258C105.813 220.783 104.439 221.046 102.805 221.046H93.4834ZM98.0964 217.275H101.857C103.143 217.275 104.08 217.03 104.67 216.54C105.259 216.042 105.554 215.382 105.554 214.558C105.554 213.954 105.408 213.422 105.117 212.96C104.826 212.498 104.41 212.136 103.871 211.873C103.338 211.611 102.702 211.479 101.964 211.479H98.0964V217.275ZM98.0964 208.358H101.516C102.148 208.358 102.709 208.248 103.199 208.028C103.697 207.8 104.087 207.481 104.371 207.069C104.662 206.657 104.808 206.163 104.808 205.588C104.808 204.8 104.527 204.164 103.966 203.681C103.412 203.198 102.624 202.957 101.601 202.957H98.0964V208.358ZM51.7647 261.046H44.0303V239.228H51.8286C54.0232 239.228 55.9124 239.665 57.4962 240.538C59.08 241.405 60.2981 242.651 61.1503 244.278C62.0097 245.904 62.4394 247.85 62.4394 250.116C62.4394 252.388 62.0097 254.341 61.1503 255.975C60.2981 257.609 59.0729 258.862 57.4749 259.736C55.884 260.609 53.9806 261.046 51.7647 261.046ZM48.6432 257.094H51.5729C52.9366 257.094 54.0836 256.852 55.014 256.369C55.9515 255.879 56.6546 255.123 57.1234 254.1C57.5992 253.07 57.8371 251.742 57.8371 250.116C57.8371 248.503 57.5992 247.186 57.1234 246.163C56.6546 245.14 55.955 244.388 55.0246 243.905C54.0942 243.422 52.9472 243.18 51.5836 243.18H48.6432V257.094ZM65.8565 261.046V239.228H80.5582V243.031H70.4694V248.23H79.8018V252.033H70.4694V257.243H80.6008V261.046H65.8565ZM88.1674 239.228L93.4408 255.805H93.6432L98.9273 239.228H104.041L96.5197 261.046H90.5751L83.0431 239.228H88.1674ZM106.667 261.046V239.228H121.369V243.031H111.28V248.23H120.612V252.033H111.28V257.243H121.411V261.046H106.667ZM125.036 261.046V239.228H129.649V257.243H139.003V261.046H125.036ZM161.258 250.137C161.258 252.516 160.807 254.54 159.905 256.209C159.01 257.878 157.788 259.153 156.24 260.034C154.699 260.908 152.966 261.344 151.041 261.344C149.102 261.344 147.362 260.904 145.821 260.023C144.28 259.143 143.062 257.868 142.167 256.199C141.272 254.53 140.825 252.509 140.825 250.137C140.825 247.758 141.272 245.734 142.167 244.064C143.062 242.395 144.28 241.124 145.821 240.251C147.362 239.37 149.102 238.93 151.041 238.93C152.966 238.93 154.699 239.37 156.24 240.251C157.788 241.124 159.01 242.395 159.905 244.064C160.807 245.734 161.258 247.758 161.258 250.137ZM156.581 250.137C156.581 248.596 156.35 247.296 155.888 246.238C155.434 245.18 154.791 244.377 153.96 243.83C153.129 243.283 152.156 243.01 151.041 243.01C149.926 243.01 148.953 243.283 148.122 243.83C147.291 244.377 146.645 245.18 146.183 246.238C145.729 247.296 145.501 248.596 145.501 250.137C145.501 251.678 145.729 252.978 146.183 254.036C146.645 255.094 147.291 255.897 148.122 256.444C148.953 256.991 149.926 257.264 151.041 257.264C152.156 257.264 153.129 256.991 153.96 256.444C154.791 255.897 155.434 255.094 155.888 254.036C156.35 252.978 156.581 251.678 156.581 250.137ZM164.675 261.046V239.228H173.283C174.938 239.228 176.347 239.544 177.512 240.176C178.677 240.801 179.565 241.671 180.176 242.786C180.793 243.894 181.102 245.172 181.102 246.621C181.102 248.07 180.79 249.349 180.165 250.457C179.54 251.564 178.634 252.427 177.448 253.045C176.269 253.663 174.842 253.972 173.166 253.972H167.679V250.275H172.42C173.308 250.275 174.039 250.123 174.614 249.817C175.197 249.505 175.63 249.075 175.914 248.528C176.205 247.974 176.351 247.339 176.351 246.621C176.351 245.897 176.205 245.265 175.914 244.725C175.63 244.178 175.197 243.756 174.614 243.457C174.032 243.152 173.293 242.999 172.399 242.999H169.288V261.046H164.675ZM184.099 239.228H189.788L195.796 253.887H196.052L202.06 239.228H207.749V261.046H203.275V246.845H203.094L197.447 260.939H194.401L188.754 246.792H188.573V261.046H184.099V239.228ZM211.55 261.046V239.228H226.252V243.031H216.163V248.23H225.495V252.033H216.163V257.243H226.294V261.046H211.55ZM248.168 239.228V261.046H244.184L234.692 247.314H234.532V261.046H229.919V239.228H233.967L243.385 252.949H243.577V239.228H248.168ZM251.149 243.031V239.228H269.068V243.031H262.388V261.046H257.828V243.031H251.149Z" fill="white"/>
<defs>
<linearGradient id="paint0_linear_259_141" x1="198.5" y1="0" x2="198.5" y2="313.18" gradientUnits="userSpaceOnUse">
<stop stop-opacity="0"/>
<stop offset="1" stop-opacity="0.7"/>
</linearGradient>
</defs>
</svg>
