<svg width="56" height="56" viewBox="0 0 56 56" fill="none" xmlns="http://www.w3.org/2000/svg">
<g clip-path="url(#clip0_584_864)">
<mask id="mask0_584_864" style="mask-type:luminance" maskUnits="userSpaceOnUse" x="0" y="0" width="56" height="56">
<path d="M56 0H0V56H56V0Z" fill="white"/>
</mask>
<g mask="url(#mask0_584_864)">
<path d="M28.0003 53.155C26.3903 53.155 24.8737 52.3381 23.8003 50.9148L20.3003 46.2481C20.2303 46.1548 19.9503 46.0381 19.8337 46.0148H18.667C8.93699 46.0148 2.91699 43.3781 2.91699 30.2648V18.5981C2.91699 8.28481 8.35366 2.84814 18.667 2.84814H37.3337C47.647 2.84814 53.0837 8.28481 53.0837 18.5981V30.2648C53.0837 40.5781 47.647 46.0148 37.3337 46.0148H36.167C35.9803 46.0148 35.817 46.1081 35.7003 46.2481L32.2003 50.9148C31.127 52.3381 29.6103 53.155 28.0003 53.155ZM18.667 6.34814C10.3137 6.34814 6.41699 10.2448 6.41699 18.5981V30.2648C6.41699 40.8115 10.0337 42.5148 18.667 42.5148H19.8337C21.0237 42.5148 22.377 43.1915 23.1003 44.1481L26.6003 48.8148C27.417 49.8881 28.5837 49.8881 29.4003 48.8148L32.9003 44.1481C33.6703 43.1215 34.8837 42.5148 36.167 42.5148H37.3337C45.687 42.5148 49.5837 38.6181 49.5837 30.2648V18.5981C49.5837 10.2448 45.687 6.34814 37.3337 6.34814H18.667Z" fill="#3AB8A9"/>
<path d="M18.6667 31.3848C18.2234 31.3848 17.78 31.2212 17.43 30.8712L12.7634 26.2046C12.0867 25.5279 12.0867 24.4079 12.7634 23.7312L17.43 19.0646C18.1067 18.388 19.2267 18.388 19.9034 19.0646C20.58 19.7413 20.58 20.8613 19.9034 21.5379L16.4734 24.9681L19.9034 28.3979C20.58 29.0746 20.58 30.1946 19.9034 30.8712C19.5534 31.2212 19.11 31.3848 18.6667 31.3848Z" fill="#3AB8A9"/>
<path d="M37.333 31.3848C36.8897 31.3848 36.4464 31.2212 36.0964 30.8712C35.4197 30.1946 35.4197 29.0746 36.0964 28.3979L39.5264 24.9681L36.0964 21.5379C35.4197 20.8613 35.4197 19.7413 36.0964 19.0646C36.773 18.388 37.893 18.388 38.5697 19.0646L43.2364 23.7312C43.913 24.4079 43.913 25.5279 43.2364 26.2046L38.5697 30.8712C38.2197 31.2212 37.7764 31.3848 37.333 31.3848Z" fill="#3AB8A9"/>
<path d="M25.6662 32.1529C25.4329 32.1529 25.1995 32.106 24.9662 32.0126C24.0795 31.6393 23.6595 30.6126 24.0562 29.7026L28.7229 18.8061C29.0962 17.9194 30.1229 17.4994 31.0329 17.896C31.9195 18.2694 32.3395 19.296 31.9429 20.206L27.2762 31.1029C26.9962 31.7562 26.3429 32.1529 25.6662 32.1529Z" fill="#3AB8A9"/>
</g>
</g>
<defs>
<clipPath id="clip0_584_864">
<rect width="56" height="56" fill="white"/>
</clipPath>
</defs>
</svg>
