<svg width="62" height="62" viewBox="0 0 62 62" fill="none" xmlns="http://www.w3.org/2000/svg">
<g filter="url(#filter0_d_584_854)">
<path d="M26.6729 11.1522C27.7734 6.61592 34.2266 6.61592 35.3271 11.1522C35.4922 11.8337 35.8159 12.4666 36.2718 12.9993C36.7278 13.5321 37.303 13.9496 37.9508 14.218C38.5987 14.4864 39.3007 14.598 39.9998 14.5438C40.6989 14.4896 41.3753 14.2711 41.974 13.9061C45.9601 11.4777 50.5248 16.0399 48.0965 20.0286C47.732 20.627 47.5138 21.303 47.4597 22.0017C47.4057 22.7003 47.5172 23.4018 47.7853 24.0492C48.0534 24.6966 48.4704 25.2717 49.0025 25.7276C49.5347 26.1834 50.1669 26.5073 50.8478 26.6729C55.3841 27.7734 55.3841 34.2266 50.8478 35.3271C50.1663 35.4922 49.5334 35.8159 49.0007 36.2718C48.4679 36.7278 48.0504 37.303 47.782 37.9508C47.5136 38.5987 47.402 39.3007 47.4562 39.9998C47.5104 40.6989 47.7289 41.3753 48.0939 41.974C50.5223 45.9601 45.9601 50.5248 41.9714 48.0965C41.373 47.732 40.697 47.5138 39.9983 47.4597C39.2997 47.4057 38.5982 47.5172 37.9508 47.7853C37.3034 48.0534 36.7283 48.4704 36.2724 49.0025C35.8166 49.5347 35.4927 50.1669 35.3271 50.8478C34.2266 55.3841 27.7734 55.3841 26.6729 50.8478C26.5078 50.1663 26.1841 49.5334 25.7282 49.0007C25.2722 48.4679 24.697 48.0504 24.0491 47.782C23.4013 47.5136 22.6993 47.402 22.0002 47.4562C21.3011 47.5104 20.6247 47.7289 20.026 48.0939C16.0399 50.5223 11.4752 45.9601 13.9035 41.9714C14.268 41.373 14.4862 40.697 14.5402 39.9983C14.5943 39.2997 14.4828 38.5982 14.2147 37.9508C13.9466 37.3034 13.5296 36.7283 12.9975 36.2724C12.4653 35.8166 11.8331 35.4927 11.1522 35.3271C6.61592 34.2266 6.61592 27.7734 11.1522 26.6729C11.8337 26.5078 12.4666 26.1841 12.9993 25.7282C13.5321 25.2722 13.9496 24.697 14.218 24.0491C14.4864 23.4013 14.598 22.6993 14.5438 22.0002C14.4896 21.3011 14.2711 20.6247 13.9061 20.026C11.4777 16.0399 16.0399 11.4752 20.0286 13.9035C22.6119 15.4742 25.9599 14.0843 26.6729 11.1522Z" stroke="#A71A7F" stroke-width="3.1" stroke-linecap="round" stroke-linejoin="round"/>
<path d="M25.8333 23.25V38.75L38.75 31L25.8333 23.25Z" stroke="#A71A7F" stroke-width="3.1" stroke-linecap="round" stroke-linejoin="round"/>
</g>
<defs>
<filter id="filter0_d_584_854" x="-4" y="0" width="70" height="70" filterUnits="userSpaceOnUse" color-interpolation-filters="sRGB">
<feFlood flood-opacity="0" result="BackgroundImageFix"/>
<feColorMatrix in="SourceAlpha" type="matrix" values="0 0 0 0 0 0 0 0 0 0 0 0 0 0 0 0 0 0 127 0" result="hardAlpha"/>
<feOffset dy="4"/>
<feGaussianBlur stdDeviation="2"/>
<feComposite in2="hardAlpha" operator="out"/>
<feColorMatrix type="matrix" values="0 0 0 0 0 0 0 0 0 0 0 0 0 0 0 0 0 0 0.25 0"/>
<feBlend mode="normal" in2="BackgroundImageFix" result="effect1_dropShadow_584_854"/>
<feBlend mode="normal" in="SourceGraphic" in2="effect1_dropShadow_584_854" result="shape"/>
</filter>
</defs>
</svg>
